<mxfile host="65bd71144e" pages="14">
    <diagram id="IN-NY-xa0Snytfm-xasA" name="1_Diagramme de cas d'utilisation Login">
        <mxGraphModel dx="43280" dy="26200" grid="1" gridSize="10" guides="1" tooltips="1" connect="1" arrows="1" fold="1" page="0" pageScale="1" pageWidth="827" pageHeight="1169" background="#ffffff" math="0" shadow="0">
            <root>
                <mxCell id="4C2n4MlkoZRWmDOpiy3T-0"/>
                <mxCell id="4C2n4MlkoZRWmDOpiy3T-1" parent="4C2n4MlkoZRWmDOpiy3T-0"/>
                <mxCell id="Gfx6n5cXGG3Qcpr8ZbWh-0" value="&lt;span style=&quot;font-size: 450px ; background-color: rgb(255 , 51 , 51)&quot;&gt;Diagramme de cas d'utulisation Gerant&amp;nbsp;&lt;/span&gt;" style="text;html=1;align=center;verticalAlign=middle;resizable=0;points=[];autosize=1;strokeWidth=7;fontColor=#000000;fontSize=450;fontStyle=3;spacingTop=0;" parent="4C2n4MlkoZRWmDOpiy3T-1" vertex="1">
                    <mxGeometry x="-8910" y="-10150" width="8470" height="550" as="geometry"/>
                </mxCell>
                <mxCell id="Gfx6n5cXGG3Qcpr8ZbWh-2" value="" style="edgeStyle=orthogonalEdgeStyle;rounded=0;orthogonalLoop=1;jettySize=auto;html=1;fontSize=450;fontColor=#FFFFFF;" parent="4C2n4MlkoZRWmDOpiy3T-1" source="Gfx6n5cXGG3Qcpr8ZbWh-3" edge="1">
                    <mxGeometry relative="1" as="geometry">
                        <mxPoint x="-19120" y="-2340" as="targetPoint"/>
                    </mxGeometry>
                </mxCell>
                <mxCell id="Gfx6n5cXGG3Qcpr8ZbWh-3" value="&lt;font color=&quot;#000000&quot;&gt;Gerant&lt;/font&gt;" style="shape=umlActor;verticalLabelPosition=bottom;verticalAlign=top;html=1;labelBackgroundColor=#ffffff;strokeColor=#000000;strokeWidth=25;fillColor=#FFFFFF;gradientColor=#ffffff;fontSize=450;fontColor=#FFFFFF;align=center;" parent="4C2n4MlkoZRWmDOpiy3T-1" vertex="1">
                    <mxGeometry x="-10130" y="-6300" width="630" height="1740" as="geometry"/>
                </mxCell>
                <mxCell id="Gfx6n5cXGG3Qcpr8ZbWh-21" value="" style="whiteSpace=wrap;html=1;labelBackgroundColor=#ffffff;strokeWidth=25;fontSize=450;align=center;fillColor=#FFFFFF;strokeColor=#000000;gradientColor=#ffffff;fontStyle=1" parent="4C2n4MlkoZRWmDOpiy3T-1" vertex="1">
                    <mxGeometry x="-8210" y="-9130" width="7630" height="6590" as="geometry"/>
                </mxCell>
                <mxCell id="Gfx6n5cXGG3Qcpr8ZbWh-30" value="Login" style="ellipse;labelBackgroundColor=#ffffff;strokeColor=#000000;strokeWidth=16;fillColor=#FFFFFF;gradientColor=#ffffff;fontSize=200;align=center;fontColor=#000000;" parent="4C2n4MlkoZRWmDOpiy3T-1" vertex="1">
                    <mxGeometry x="-7670" y="-5410" width="2070" height="720" as="geometry"/>
                </mxCell>
                <mxCell id="PzydHnEOJo43LiRcM2_l-1" value="Ajouter User" style="ellipse;labelBackgroundColor=#ffffff;strokeColor=#000000;strokeWidth=16;fillColor=#FFFFFF;gradientColor=#ffffff;fontSize=149;align=center;fontColor=#000000;" parent="4C2n4MlkoZRWmDOpiy3T-1" vertex="1">
                    <mxGeometry x="-2720" y="-6640" width="1548" height="580" as="geometry"/>
                </mxCell>
                <mxCell id="PzydHnEOJo43LiRcM2_l-2" value="" style="endArrow=none;startArrow=none;endFill=0;startFill=0;endSize=8;html=1;verticalAlign=bottom;labelBackgroundColor=none;strokeWidth=15;fontSize=171;fontColor=#000000;entryX=0;entryY=0.5;entryDx=0;entryDy=0;exitX=0.818;exitY=0.344;exitDx=0;exitDy=0;exitPerimeter=0;strokeColor=#000000;" parent="4C2n4MlkoZRWmDOpiy3T-1" source="Gfx6n5cXGG3Qcpr8ZbWh-3" target="Gfx6n5cXGG3Qcpr8ZbWh-30" edge="1">
                    <mxGeometry width="160" relative="1" as="geometry">
                        <mxPoint x="-9760" y="-4710" as="sourcePoint"/>
                        <mxPoint x="-9600" y="-4710" as="targetPoint"/>
                    </mxGeometry>
                </mxCell>
                <mxCell id="PzydHnEOJo43LiRcM2_l-3" value="Extends" style="endArrow=block;endSize=16;endFill=0;html=1;labelBackgroundColor=none;strokeColor=#000000;strokeWidth=15;fontSize=171;fontColor=#000000;entryX=1;entryY=0.5;entryDx=0;entryDy=0;exitX=0;exitY=0.5;exitDx=0;exitDy=0;dashed=1;" parent="4C2n4MlkoZRWmDOpiy3T-1" source="6jx82siifGvFc8fUX8GF-1" target="Gfx6n5cXGG3Qcpr8ZbWh-30" edge="1">
                    <mxGeometry x="0.0285" y="-217" width="160" relative="1" as="geometry">
                        <mxPoint x="-3320" y="-5230" as="sourcePoint"/>
                        <mxPoint x="-3160" y="-5230" as="targetPoint"/>
                        <mxPoint x="-6" y="1" as="offset"/>
                    </mxGeometry>
                </mxCell>
                <mxCell id="6jx82siifGvFc8fUX8GF-1" value="Modifier User" style="ellipse;labelBackgroundColor=#ffffff;strokeColor=#000000;strokeWidth=16;fillColor=#FFFFFF;gradientColor=#ffffff;fontSize=149;align=center;fontColor=#000000;" parent="4C2n4MlkoZRWmDOpiy3T-1" vertex="1">
                    <mxGeometry x="-2620" y="-5420" width="1548" height="580" as="geometry"/>
                </mxCell>
                <mxCell id="6jx82siifGvFc8fUX8GF-2" value="supprimer UserÂ " style="ellipse;labelBackgroundColor=#ffffff;strokeColor=#000000;strokeWidth=16;fillColor=#FFFFFF;gradientColor=#ffffff;fontSize=149;align=center;fontColor=#000000;" parent="4C2n4MlkoZRWmDOpiy3T-1" vertex="1">
                    <mxGeometry x="-2550" y="-4260" width="1548" height="580" as="geometry"/>
                </mxCell>
                <mxCell id="6jx82siifGvFc8fUX8GF-3" value="Extends" style="endArrow=block;endSize=16;endFill=0;html=1;labelBackgroundColor=none;strokeColor=#000000;strokeWidth=15;fontSize=171;fontColor=#000000;entryX=1;entryY=0.5;entryDx=0;entryDy=0;exitX=0;exitY=0.5;exitDx=0;exitDy=0;dashed=1;" parent="4C2n4MlkoZRWmDOpiy3T-1" source="6jx82siifGvFc8fUX8GF-2" edge="1">
                    <mxGeometry x="0.0285" y="-217" width="160" relative="1" as="geometry">
                        <mxPoint x="-2889.99999999996" y="-4810" as="sourcePoint"/>
                        <mxPoint x="-5590" y="-5040" as="targetPoint"/>
                        <mxPoint x="-6" y="1" as="offset"/>
                    </mxGeometry>
                </mxCell>
                <mxCell id="6jx82siifGvFc8fUX8GF-4" value="Extends" style="endArrow=block;endSize=16;endFill=0;html=1;labelBackgroundColor=none;strokeColor=#000000;strokeWidth=15;fontSize=171;fontColor=#000000;entryX=1;entryY=0.5;entryDx=0;entryDy=0;exitX=0;exitY=0.5;exitDx=0;exitDy=0;dashed=1;" parent="4C2n4MlkoZRWmDOpiy3T-1" source="PzydHnEOJo43LiRcM2_l-1" edge="1">
                    <mxGeometry x="0.0285" y="-217" width="160" relative="1" as="geometry">
                        <mxPoint x="-2879.99999999996" y="-4800" as="sourcePoint"/>
                        <mxPoint x="-5580" y="-5030" as="targetPoint"/>
                        <mxPoint x="-6" y="1" as="offset"/>
                    </mxGeometry>
                </mxCell>
            </root>
        </mxGraphModel>
    </diagram>
    <diagram id="ssM8Tn1uFL18VC7aSLDW" name="1_(Diagramme de cas d'utilisation) bref4 ">
        <mxGraphModel dx="1003" dy="1058" grid="1" gridSize="10" guides="1" tooltips="1" connect="1" arrows="1" fold="1" page="0" pageScale="1" pageWidth="827" pageHeight="1169" background="#ffffff" math="0" shadow="0">
            <root>
                <mxCell id="vYY5V7x3A1uOqPw2hsFq-0"/>
                <mxCell id="vYY5V7x3A1uOqPw2hsFq-1" parent="vYY5V7x3A1uOqPw2hsFq-0"/>
                <mxCell id="vYY5V7x3A1uOqPw2hsFq-2" value="" style="whiteSpace=wrap;html=1;strokeWidth=4;fontSize=117;fontColor=#FFFFFF;labelBackgroundColor=#FFFFFF;fillColor=#FFFFFF;labelBorderColor=none;strokeColor=#000000;" parent="vYY5V7x3A1uOqPw2hsFq-1" vertex="1">
                    <mxGeometry x="270" y="50" width="430" height="390" as="geometry"/>
                </mxCell>
                <mxCell id="vYY5V7x3A1uOqPw2hsFq-3" value="&lt;font style=&quot;font-size: 20px&quot;&gt;USER&lt;/font&gt;" style="shape=umlActor;verticalLabelPosition=bottom;verticalAlign=bottom;labelBackgroundColor=none;strokeWidth=4;fontSize=117;strokeColor=#000000;perimeterSpacing=0;fillColor=#FFFFFF;whiteSpace=wrap;html=1;fontColor=#000000;" parent="vYY5V7x3A1uOqPw2hsFq-1" vertex="1">
                    <mxGeometry x="120" y="90" width="50" height="90" as="geometry"/>
                </mxCell>
                <mxCell id="vYY5V7x3A1uOqPw2hsFq-12" style="edgeStyle=orthogonalEdgeStyle;rounded=0;orthogonalLoop=1;jettySize=auto;html=1;exitX=0.5;exitY=1;exitDx=0;exitDy=0;fontSize=117;fontColor=#FFFFFF;" parent="vYY5V7x3A1uOqPw2hsFq-1" edge="1">
                    <mxGeometry relative="1" as="geometry">
                        <mxPoint x="325" y="200" as="sourcePoint"/>
                        <mxPoint x="325" y="200" as="targetPoint"/>
                    </mxGeometry>
                </mxCell>
                <mxCell id="vYY5V7x3A1uOqPw2hsFq-13" value="&lt;font color=&quot;#ba0000&quot;&gt;&lt;span style=&quot;font-size: 20px&quot;&gt;article&lt;/span&gt;&lt;/font&gt;" style="ellipse;whiteSpace=wrap;html=1;fontSize=117;fontColor=#FFFFFF;strokeColor=#000000;strokeWidth=2;fillColor=#FFFFFF;labelBackgroundColor=none;spacing=2;spacingRight=5;spacingBottom=66;" parent="vYY5V7x3A1uOqPw2hsFq-1" vertex="1">
                    <mxGeometry x="430" y="152" width="80" height="48" as="geometry"/>
                </mxCell>
                <mxCell id="vYY5V7x3A1uOqPw2hsFq-15" value="&lt;font color=&quot;#ba0000&quot;&gt;&lt;span style=&quot;font-size: 20px&quot;&gt;Login&lt;/span&gt;&lt;/font&gt;" style="ellipse;whiteSpace=wrap;html=1;fontSize=117;fontColor=#FFFFFF;strokeColor=#000000;strokeWidth=2;fillColor=#FFFFFF;labelBackgroundColor=none;spacing=2;spacingRight=5;spacingBottom=66;" parent="vYY5V7x3A1uOqPw2hsFq-1" vertex="1">
                    <mxGeometry x="290" y="152" width="80" height="48" as="geometry"/>
                </mxCell>
                <mxCell id="vYY5V7x3A1uOqPw2hsFq-16" value="&lt;font color=&quot;#ba0000&quot;&gt;&lt;span style=&quot;font-size: 20px&quot;&gt;Ajouter&lt;/span&gt;&lt;/font&gt;" style="ellipse;whiteSpace=wrap;html=1;fontSize=117;fontColor=#FFFFFF;strokeColor=#000000;strokeWidth=2;fillColor=#FFFFFF;labelBackgroundColor=none;spacing=2;spacingRight=5;spacingBottom=66;" parent="vYY5V7x3A1uOqPw2hsFq-1" vertex="1">
                    <mxGeometry x="570" y="70" width="110" height="48" as="geometry"/>
                </mxCell>
                <mxCell id="vYY5V7x3A1uOqPw2hsFq-19" value="&lt;font color=&quot;#ba0000&quot;&gt;&lt;span style=&quot;font-size: 20px&quot;&gt;Supprimer&lt;/span&gt;&lt;/font&gt;" style="ellipse;whiteSpace=wrap;html=1;fontSize=117;fontColor=#FFFFFF;strokeColor=#000000;strokeWidth=2;fillColor=#FFFFFF;labelBackgroundColor=none;spacing=2;spacingRight=5;spacingBottom=66;" parent="vYY5V7x3A1uOqPw2hsFq-1" vertex="1">
                    <mxGeometry x="570" y="230" width="110" height="48" as="geometry"/>
                </mxCell>
                <mxCell id="vYY5V7x3A1uOqPw2hsFq-21" value="&lt;font color=&quot;#ba0000&quot;&gt;&lt;span style=&quot;font-size: 20px&quot;&gt;Modifier&lt;/span&gt;&lt;/font&gt;" style="ellipse;whiteSpace=wrap;html=1;fontSize=117;fontColor=#FFFFFF;strokeColor=#000000;strokeWidth=2;fillColor=#FFFFFF;labelBackgroundColor=none;spacing=2;spacingRight=5;spacingBottom=66;" parent="vYY5V7x3A1uOqPw2hsFq-1" vertex="1">
                    <mxGeometry x="570" y="140" width="110" height="48" as="geometry"/>
                </mxCell>
                <mxCell id="vYY5V7x3A1uOqPw2hsFq-23" value="&amp;lt;&amp;lt;include&amp;gt;&amp;gt;" style="html=1;verticalAlign=bottom;labelBackgroundColor=none;endArrow=open;endFill=0;dashed=1;fontSize=6;entryX=0;entryY=0.5;entryDx=0;entryDy=0;fontColor=#000000;exitX=0.988;exitY=0.578;exitDx=0;exitDy=0;exitPerimeter=0;strokeColor=#000000;" parent="vYY5V7x3A1uOqPw2hsFq-1" source="vYY5V7x3A1uOqPw2hsFq-15" target="vYY5V7x3A1uOqPw2hsFq-13" edge="1">
                    <mxGeometry width="160" relative="1" as="geometry">
                        <mxPoint x="370" y="180" as="sourcePoint"/>
                        <mxPoint x="530" y="180" as="targetPoint"/>
                    </mxGeometry>
                </mxCell>
                <mxCell id="vYY5V7x3A1uOqPw2hsFq-25" value="&amp;lt;&amp;lt;extend&amp;gt;&amp;gt;" style="html=1;verticalAlign=bottom;labelBackgroundColor=none;endArrow=open;endFill=0;dashed=1;strokeColor=#000000;fontSize=6;fontColor=#000000;entryX=0.783;entryY=0.157;entryDx=0;entryDy=0;exitX=0.049;exitY=0.783;exitDx=0;exitDy=0;exitPerimeter=0;entryPerimeter=0;" parent="vYY5V7x3A1uOqPw2hsFq-1" source="vYY5V7x3A1uOqPw2hsFq-16" target="vYY5V7x3A1uOqPw2hsFq-13" edge="1">
                    <mxGeometry x="-0.078" y="-14" width="160" relative="1" as="geometry">
                        <mxPoint x="470" y="110" as="sourcePoint"/>
                        <mxPoint x="630" y="110" as="targetPoint"/>
                        <mxPoint as="offset"/>
                    </mxGeometry>
                </mxCell>
                <mxCell id="vYY5V7x3A1uOqPw2hsFq-26" value="&amp;lt;&amp;lt;extend&amp;gt;&amp;gt;" style="html=1;verticalAlign=bottom;labelBackgroundColor=none;endArrow=open;endFill=0;dashed=1;strokeColor=#000000;fontSize=6;fontColor=#000000;entryX=0.955;entryY=0.684;entryDx=0;entryDy=0;exitX=0.036;exitY=0.733;exitDx=0;exitDy=0;exitPerimeter=0;entryPerimeter=0;" parent="vYY5V7x3A1uOqPw2hsFq-1" source="vYY5V7x3A1uOqPw2hsFq-21" target="vYY5V7x3A1uOqPw2hsFq-13" edge="1">
                    <mxGeometry x="-0.078" y="-14" width="160" relative="1" as="geometry">
                        <mxPoint x="575.0000000000001" y="170.00399999999985" as="sourcePoint"/>
                        <mxPoint x="492.2500000000001" y="221.95600000000007" as="targetPoint"/>
                        <mxPoint as="offset"/>
                    </mxGeometry>
                </mxCell>
                <mxCell id="vYY5V7x3A1uOqPw2hsFq-27" value="&amp;lt;&amp;lt;extend&amp;gt;&amp;gt;" style="html=1;verticalAlign=bottom;labelBackgroundColor=none;endArrow=open;endFill=0;dashed=1;strokeColor=#000000;fontSize=6;fontColor=#000000;entryX=1;entryY=1;entryDx=0;entryDy=0;exitX=0.028;exitY=0.324;exitDx=0;exitDy=0;exitPerimeter=0;" parent="vYY5V7x3A1uOqPw2hsFq-1" source="vYY5V7x3A1uOqPw2hsFq-19" target="vYY5V7x3A1uOqPw2hsFq-13" edge="1">
                    <mxGeometry x="-0.078" y="-14" width="160" relative="1" as="geometry">
                        <mxPoint x="583.96" y="185.18399999999997" as="sourcePoint"/>
                        <mxPoint x="516.4000000000001" y="194.83199999999988" as="targetPoint"/>
                        <mxPoint as="offset"/>
                    </mxGeometry>
                </mxCell>
                <mxCell id="vYY5V7x3A1uOqPw2hsFq-29" value="" style="endArrow=none;startArrow=none;endFill=0;startFill=0;endSize=8;html=1;verticalAlign=bottom;labelBackgroundColor=none;strokeWidth=3;fontSize=6;fontColor=#000000;entryX=0.067;entryY=0.333;entryDx=0;entryDy=0;entryPerimeter=0;exitX=1;exitY=0.3333333333333333;exitDx=0;exitDy=0;exitPerimeter=0;strokeColor=#000000;" parent="vYY5V7x3A1uOqPw2hsFq-1" source="vYY5V7x3A1uOqPw2hsFq-3" target="vYY5V7x3A1uOqPw2hsFq-15" edge="1">
                    <mxGeometry width="160" relative="1" as="geometry">
                        <mxPoint x="250" y="150" as="sourcePoint"/>
                        <mxPoint x="410" y="150" as="targetPoint"/>
                    </mxGeometry>
                </mxCell>
                <mxCell id="svHQsHVDhiuSAzeIwxCT-0" value="&lt;font color=&quot;#ba0000&quot;&gt;&lt;span style=&quot;font-size: 20px&quot;&gt;Affichage&lt;/span&gt;&lt;/font&gt;" style="ellipse;whiteSpace=wrap;html=1;fontSize=117;fontColor=#FFFFFF;strokeColor=#000000;strokeWidth=2;fillColor=#FFFFFF;labelBackgroundColor=none;spacing=2;spacingRight=5;spacingBottom=66;" parent="vYY5V7x3A1uOqPw2hsFq-1" vertex="1">
                    <mxGeometry x="550" y="320" width="140" height="48" as="geometry"/>
                </mxCell>
                <mxCell id="svHQsHVDhiuSAzeIwxCT-2" value="&amp;lt;&amp;lt;extend&amp;gt;&amp;gt;" style="html=1;verticalAlign=bottom;labelBackgroundColor=none;endArrow=open;endFill=0;dashed=1;strokeColor=#000000;fontSize=6;fontColor=#000000;entryX=0.25;entryY=0.958;entryDx=0;entryDy=0;entryPerimeter=0;exitX=0.071;exitY=0.306;exitDx=0;exitDy=0;exitPerimeter=0;" parent="vYY5V7x3A1uOqPw2hsFq-1" source="svHQsHVDhiuSAzeIwxCT-0" target="vYY5V7x3A1uOqPw2hsFq-13" edge="1">
                    <mxGeometry x="-0.078" y="-14" width="160" relative="1" as="geometry">
                        <mxPoint x="560" y="334" as="sourcePoint"/>
                        <mxPoint x="486.96000000000004" y="211.39200000000005" as="targetPoint"/>
                        <mxPoint as="offset"/>
                    </mxGeometry>
                </mxCell>
            </root>
        </mxGraphModel>
    </diagram>
    <diagram id="_pEMY6ZVk9HbcUn8pb01" name="2_(diagramme de sÃ©quence ) Authentification     --bref4 ">
        <mxGraphModel dx="1204" dy="790" grid="1" gridSize="10" guides="1" tooltips="1" connect="1" arrows="1" fold="1" page="0" pageScale="1" pageWidth="827" pageHeight="1169" background="#ffffff" math="0" shadow="0">
            <root>
                <mxCell id="7oOOrNIOACidjCjXM9u_-0"/>
                <mxCell id="7oOOrNIOACidjCjXM9u_-1" parent="7oOOrNIOACidjCjXM9u_-0"/>
                <mxCell id="WZtzopb6p-N7kpQ_uD9a-2" value="&lt;font style=&quot;font-size: 12px&quot;&gt;BD&lt;/font&gt;" style="shape=umlLifeline;perimeter=lifelinePerimeter;whiteSpace=wrap;html=1;container=1;collapsible=0;recursiveResize=0;outlineConnect=0;labelBackgroundColor=none;strokeColor=#000000;strokeWidth=2;fillColor=#FFFFFF;gradientColor=none;fontSize=6;fontColor=#000000;" parent="7oOOrNIOACidjCjXM9u_-1" vertex="1">
                    <mxGeometry x="750" y="160" width="100" height="440" as="geometry"/>
                </mxCell>
                <mxCell id="WZtzopb6p-N7kpQ_uD9a-3" value="" style="html=1;points=[];perimeter=orthogonalPerimeter;fillColor=#808080;" parent="WZtzopb6p-N7kpQ_uD9a-2" vertex="1">
                    <mxGeometry x="45" y="110" width="10" height="230" as="geometry"/>
                </mxCell>
                <mxCell id="WZtzopb6p-N7kpQ_uD9a-4" value="&lt;font style=&quot;font-size: 11px&quot;&gt;APPLICATION&lt;/font&gt;" style="shape=umlLifeline;perimeter=lifelinePerimeter;whiteSpace=wrap;html=1;container=1;collapsible=0;recursiveResize=0;outlineConnect=0;labelBackgroundColor=none;strokeColor=#000000;strokeWidth=2;fillColor=#FFFFFF;gradientColor=none;fontSize=6;fontColor=#000000;" parent="7oOOrNIOACidjCjXM9u_-1" vertex="1">
                    <mxGeometry x="430" y="160" width="100" height="440" as="geometry"/>
                </mxCell>
                <mxCell id="WZtzopb6p-N7kpQ_uD9a-5" value="" style="html=1;points=[];perimeter=orthogonalPerimeter;" parent="WZtzopb6p-N7kpQ_uD9a-4" vertex="1">
                    <mxGeometry x="45" y="80" width="10" height="70" as="geometry"/>
                </mxCell>
                <mxCell id="WZtzopb6p-N7kpQ_uD9a-15" value="" style="html=1;points=[];perimeter=orthogonalPerimeter;" parent="WZtzopb6p-N7kpQ_uD9a-4" vertex="1">
                    <mxGeometry x="45" y="165" width="10" height="195" as="geometry"/>
                </mxCell>
                <mxCell id="WZtzopb6p-N7kpQ_uD9a-6" value="User" style="shape=umlActor;verticalLabelPosition=bottom;verticalAlign=top;html=1;labelBackgroundColor=none;strokeColor=#000000;strokeWidth=2;fillColor=#FFFFFF;gradientColor=none;fontSize=11;fontColor=#000000;" parent="7oOOrNIOACidjCjXM9u_-1" vertex="1">
                    <mxGeometry x="185" y="140" width="30" height="60" as="geometry"/>
                </mxCell>
                <mxCell id="WZtzopb6p-N7kpQ_uD9a-7" value="" style="html=1;points=[];perimeter=orthogonalPerimeter;" parent="7oOOrNIOACidjCjXM9u_-1" vertex="1">
                    <mxGeometry x="195" y="240" width="10" height="360" as="geometry"/>
                </mxCell>
                <mxCell id="WZtzopb6p-N7kpQ_uD9a-10" value="DÃ©marer l'application&amp;nbsp;" style="html=1;verticalAlign=bottom;labelBackgroundColor=none;endArrow=block;endFill=1;endSize=6;align=left;strokeColor=#000000;fontSize=11;fontColor=#000000;" parent="7oOOrNIOACidjCjXM9u_-1" target="WZtzopb6p-N7kpQ_uD9a-4" edge="1">
                    <mxGeometry x="-0.375" relative="1" as="geometry">
                        <mxPoint x="205" y="250" as="sourcePoint"/>
                        <mxPoint x="385" y="250" as="targetPoint"/>
                        <mxPoint as="offset"/>
                    </mxGeometry>
                </mxCell>
                <mxCell id="WZtzopb6p-N7kpQ_uD9a-12" value="Afficher le formulaire d'authentification" style="html=1;verticalAlign=bottom;labelBackgroundColor=none;endArrow=block;endFill=1;endSize=6;align=left;strokeColor=#000000;fontSize=11;fontColor=#000000;" parent="7oOOrNIOACidjCjXM9u_-1" edge="1">
                    <mxGeometry x="-0.6715" relative="1" as="geometry">
                        <mxPoint x="205" y="280" as="sourcePoint"/>
                        <mxPoint x="479" y="280" as="targetPoint"/>
                        <mxPoint as="offset"/>
                    </mxGeometry>
                </mxCell>
                <mxCell id="WZtzopb6p-N7kpQ_uD9a-13" value="VÃ©rifier&amp;nbsp; Login" style="html=1;verticalAlign=bottom;labelBackgroundColor=none;endArrow=block;endFill=1;endSize=6;align=left;strokeColor=#000000;fontSize=11;fontColor=#000000;" parent="7oOOrNIOACidjCjXM9u_-1" source="WZtzopb6p-N7kpQ_uD9a-4" edge="1">
                    <mxGeometry x="-0.1226" relative="1" as="geometry">
                        <mxPoint x="510" y="300" as="sourcePoint"/>
                        <mxPoint x="794" y="300" as="targetPoint"/>
                        <mxPoint as="offset"/>
                    </mxGeometry>
                </mxCell>
                <mxCell id="WZtzopb6p-N7kpQ_uD9a-14" value="Rechercher" style="html=1;verticalAlign=bottom;labelBackgroundColor=none;endArrow=block;endFill=1;endSize=6;align=left;strokeColor=#000000;fontSize=11;fontColor=#000000;exitX=1.078;exitY=0.136;exitDx=0;exitDy=0;exitPerimeter=0;" parent="7oOOrNIOACidjCjXM9u_-1" edge="1">
                    <mxGeometry x="0.1884" y="-10" relative="1" as="geometry">
                        <mxPoint x="805.78" y="295.8800000000001" as="sourcePoint"/>
                        <mxPoint x="810" y="315" as="targetPoint"/>
                        <mxPoint x="10" y="10" as="offset"/>
                        <Array as="points">
                            <mxPoint x="860" y="296"/>
                            <mxPoint x="860" y="305"/>
                            <mxPoint x="860" y="315"/>
                        </Array>
                    </mxGeometry>
                </mxCell>
                <mxCell id="WZtzopb6p-N7kpQ_uD9a-16" value="Non trouver" style="html=1;verticalAlign=bottom;labelBackgroundColor=none;endArrow=block;endFill=1;endSize=6;align=left;strokeColor=#000000;fontSize=11;fontColor=#000000;" parent="7oOOrNIOACidjCjXM9u_-1" edge="1">
                    <mxGeometry x="0.0667" relative="1" as="geometry">
                        <mxPoint x="790" y="359.41" as="sourcePoint"/>
                        <mxPoint x="490" y="359.41" as="targetPoint"/>
                        <mxPoint as="offset"/>
                    </mxGeometry>
                </mxCell>
                <mxCell id="qbraH-4ASPzrNzbPSBrx-3" value="" style="rounded=0;whiteSpace=wrap;html=1;fillColor=none;strokeWidth=2;strokeColor=#000000;" parent="7oOOrNIOACidjCjXM9u_-1" vertex="1">
                    <mxGeometry x="115" y="340" width="730" height="150" as="geometry"/>
                </mxCell>
                <mxCell id="qbraH-4ASPzrNzbPSBrx-4" value="trouver" style="html=1;verticalAlign=bottom;labelBackgroundColor=none;endArrow=block;endFill=1;endSize=6;align=left;strokeColor=#000000;fontSize=11;fontColor=#000000;" parent="7oOOrNIOACidjCjXM9u_-1" edge="1">
                    <mxGeometry x="0.0667" relative="1" as="geometry">
                        <mxPoint x="790" y="423.00000000000017" as="sourcePoint"/>
                        <mxPoint x="490" y="423.00000000000017" as="targetPoint"/>
                        <mxPoint as="offset"/>
                    </mxGeometry>
                </mxCell>
                <mxCell id="qbraH-4ASPzrNzbPSBrx-5" value="Afficher message d'erreur" style="html=1;verticalAlign=bottom;labelBackgroundColor=none;endArrow=block;endFill=1;endSize=6;align=left;strokeColor=#000000;fontSize=11;fontColor=#000000;dashed=1;" parent="7oOOrNIOACidjCjXM9u_-1" edge="1">
                    <mxGeometry x="0.3585" relative="1" as="geometry">
                        <mxPoint x="470" y="380" as="sourcePoint"/>
                        <mxPoint x="204.99999999999977" y="380.4100000000001" as="targetPoint"/>
                        <mxPoint as="offset"/>
                    </mxGeometry>
                </mxCell>
                <mxCell id="qbraH-4ASPzrNzbPSBrx-6" value="Afficher le menu" style="html=1;verticalAlign=bottom;labelBackgroundColor=none;endArrow=block;endFill=1;endSize=6;align=left;strokeColor=#000000;fontSize=11;fontColor=#000000;dashed=1;" parent="7oOOrNIOACidjCjXM9u_-1" edge="1">
                    <mxGeometry x="0.3585" relative="1" as="geometry">
                        <mxPoint x="469.9999999999998" y="450" as="sourcePoint"/>
                        <mxPoint x="204.99999999999977" y="450.4100000000001" as="targetPoint"/>
                        <mxPoint as="offset"/>
                    </mxGeometry>
                </mxCell>
                <mxCell id="IxZAlCM_q5DiKrRTXnrL-0" value="&lt;font color=&quot;#0a0a0a&quot;&gt;ALT&lt;/font&gt;" style="text;html=1;align=center;verticalAlign=middle;resizable=0;points=[];autosize=1;strokeColor=#000000;" parent="7oOOrNIOACidjCjXM9u_-1" vertex="1">
                    <mxGeometry x="120" y="348" width="40" height="20" as="geometry"/>
                </mxCell>
                <mxCell id="5U8QtuyNfD6KDLiNy5d6-1" value="" style="html=1;verticalAlign=bottom;labelBackgroundColor=none;endArrow=none;endFill=0;endSize=6;align=left;strokeColor=#000000;fontSize=11;fontColor=#000000;dashed=1;" parent="7oOOrNIOACidjCjXM9u_-1" edge="1">
                    <mxGeometry x="0.3585" relative="1" as="geometry">
                        <mxPoint x="840" y="399" as="sourcePoint"/>
                        <mxPoint x="120" y="399" as="targetPoint"/>
                        <mxPoint as="offset"/>
                    </mxGeometry>
                </mxCell>
            </root>
        </mxGraphModel>
    </diagram>
    <diagram id="6FLpl6Q7W75eJouPfdPF" name="2_(Diagramme de sÃ©quence )  MENU        ---bref4">
        <mxGraphModel dx="1204" dy="1190" grid="1" gridSize="10" guides="1" tooltips="1" connect="1" arrows="1" fold="1" page="0" pageScale="1" pageWidth="827" pageHeight="1169" background="#ffffff" math="0" shadow="0">
            <root>
                <mxCell id="xEL0n4jqzmxF0NtzZVze-0"/>
                <mxCell id="xEL0n4jqzmxF0NtzZVze-1" parent="xEL0n4jqzmxF0NtzZVze-0"/>
                <mxCell id="ICoUMrY1e1jBuwctVECq-2" value="&lt;font style=&quot;font-size: 11px&quot;&gt;APPLICATION&lt;/font&gt;" style="shape=umlLifeline;perimeter=lifelinePerimeter;whiteSpace=wrap;html=1;container=1;collapsible=0;recursiveResize=0;outlineConnect=0;labelBackgroundColor=none;strokeColor=#000000;strokeWidth=2;fillColor=#FFFFFF;gradientColor=none;fontSize=6;fontColor=#000000;" parent="xEL0n4jqzmxF0NtzZVze-1" vertex="1">
                    <mxGeometry x="430" width="100" height="920" as="geometry"/>
                </mxCell>
                <mxCell id="ICoUMrY1e1jBuwctVECq-4" value="" style="html=1;points=[];perimeter=orthogonalPerimeter;" parent="ICoUMrY1e1jBuwctVECq-2" vertex="1">
                    <mxGeometry x="45" y="80" width="10" height="790" as="geometry"/>
                </mxCell>
                <mxCell id="ICoUMrY1e1jBuwctVECq-5" value="User" style="shape=umlActor;verticalLabelPosition=bottom;verticalAlign=top;html=1;labelBackgroundColor=none;strokeColor=#000000;strokeWidth=2;fillColor=#FFFFFF;gradientColor=none;fontSize=11;fontColor=#000000;" parent="xEL0n4jqzmxF0NtzZVze-1" vertex="1">
                    <mxGeometry x="185" y="-10" width="30" height="60" as="geometry"/>
                </mxCell>
                <mxCell id="ICoUMrY1e1jBuwctVECq-6" value="" style="html=1;points=[];perimeter=orthogonalPerimeter;" parent="xEL0n4jqzmxF0NtzZVze-1" vertex="1">
                    <mxGeometry x="195" y="80" width="10" height="840" as="geometry"/>
                </mxCell>
                <mxCell id="ICoUMrY1e1jBuwctVECq-7" value="Interface menu" style="html=1;verticalAlign=bottom;labelBackgroundColor=none;endArrow=block;endFill=1;endSize=6;align=left;strokeColor=#000000;fontSize=11;fontColor=#000000;" parent="xEL0n4jqzmxF0NtzZVze-1" target="ICoUMrY1e1jBuwctVECq-2" edge="1">
                    <mxGeometry x="-0.375" relative="1" as="geometry">
                        <mxPoint x="205" y="250" as="sourcePoint"/>
                        <mxPoint x="385" y="250" as="targetPoint"/>
                        <mxPoint as="offset"/>
                    </mxGeometry>
                </mxCell>
                <mxCell id="ICoUMrY1e1jBuwctVECq-8" value="[menu] click sur gestion d'article&amp;nbsp;" style="html=1;verticalAlign=bottom;labelBackgroundColor=none;endArrow=block;endFill=1;endSize=6;align=left;strokeColor=#000000;fontSize=11;fontColor=#000000;" parent="xEL0n4jqzmxF0NtzZVze-1" edge="1">
                    <mxGeometry x="-0.5036" relative="1" as="geometry">
                        <mxPoint x="205" y="340" as="sourcePoint"/>
                        <mxPoint x="479" y="340" as="targetPoint"/>
                        <mxPoint as="offset"/>
                    </mxGeometry>
                </mxCell>
                <mxCell id="ICoUMrY1e1jBuwctVECq-15" value="Afficher le menu" style="html=1;verticalAlign=bottom;labelBackgroundColor=none;endArrow=block;endFill=1;endSize=6;align=left;strokeColor=#000000;fontSize=11;fontColor=#000000;dashed=1;" parent="xEL0n4jqzmxF0NtzZVze-1" edge="1">
                    <mxGeometry x="0.3585" relative="1" as="geometry">
                        <mxPoint x="469.9999999999998" y="280" as="sourcePoint"/>
                        <mxPoint x="204.99999999999977" y="280.4100000000001" as="targetPoint"/>
                        <mxPoint as="offset"/>
                    </mxGeometry>
                </mxCell>
                <mxCell id="ICoUMrY1e1jBuwctVECq-17" value="Afficher l'article" style="html=1;verticalAlign=bottom;labelBackgroundColor=none;endArrow=block;endFill=1;endSize=6;align=left;strokeColor=#000000;fontSize=11;fontColor=#000000;dashed=1;" parent="xEL0n4jqzmxF0NtzZVze-1" edge="1">
                    <mxGeometry x="0.3585" relative="1" as="geometry">
                        <mxPoint x="469.9999999999998" y="370" as="sourcePoint"/>
                        <mxPoint x="204.99999999999977" y="370.4100000000001" as="targetPoint"/>
                        <mxPoint as="offset"/>
                    </mxGeometry>
                </mxCell>
                <mxCell id="ICoUMrY1e1jBuwctVECq-18" value="[menu] click sur gestion de stock" style="html=1;verticalAlign=bottom;labelBackgroundColor=none;endArrow=block;endFill=1;endSize=6;align=left;strokeColor=#000000;fontSize=11;fontColor=#000000;" parent="xEL0n4jqzmxF0NtzZVze-1" edge="1">
                    <mxGeometry x="-0.5036" relative="1" as="geometry">
                        <mxPoint x="205" y="424.41" as="sourcePoint"/>
                        <mxPoint x="470" y="424.41" as="targetPoint"/>
                        <mxPoint as="offset"/>
                    </mxGeometry>
                </mxCell>
                <mxCell id="ICoUMrY1e1jBuwctVECq-19" value="Afficher le stock" style="html=1;verticalAlign=bottom;labelBackgroundColor=none;endArrow=block;endFill=1;endSize=6;align=left;strokeColor=#000000;fontSize=11;fontColor=#000000;dashed=1;" parent="xEL0n4jqzmxF0NtzZVze-1" edge="1">
                    <mxGeometry x="0.3585" relative="1" as="geometry">
                        <mxPoint x="469.9999999999998" y="459.41" as="sourcePoint"/>
                        <mxPoint x="204.99999999999977" y="459.8200000000001" as="targetPoint"/>
                        <mxPoint as="offset"/>
                    </mxGeometry>
                </mxCell>
                <mxCell id="ICoUMrY1e1jBuwctVECq-20" value="[menu] click sur gestion d'entree" style="html=1;verticalAlign=bottom;labelBackgroundColor=none;endArrow=block;endFill=1;endSize=6;align=left;strokeColor=#000000;fontSize=11;fontColor=#000000;" parent="xEL0n4jqzmxF0NtzZVze-1" edge="1">
                    <mxGeometry x="-0.5036" relative="1" as="geometry">
                        <mxPoint x="205" y="520" as="sourcePoint"/>
                        <mxPoint x="469.9999999999998" y="520" as="targetPoint"/>
                        <mxPoint as="offset"/>
                    </mxGeometry>
                </mxCell>
                <mxCell id="ICoUMrY1e1jBuwctVECq-21" value="Afficher gestion de l'entrÃ©e" style="html=1;verticalAlign=bottom;labelBackgroundColor=none;endArrow=block;endFill=1;endSize=6;align=left;strokeColor=#000000;fontSize=11;fontColor=#000000;dashed=1;" parent="xEL0n4jqzmxF0NtzZVze-1" edge="1">
                    <mxGeometry x="0.3585" relative="1" as="geometry">
                        <mxPoint x="469.9999999999998" y="550" as="sourcePoint"/>
                        <mxPoint x="204.99999999999977" y="550.4100000000001" as="targetPoint"/>
                        <mxPoint as="offset"/>
                    </mxGeometry>
                </mxCell>
                <mxCell id="ICoUMrY1e1jBuwctVECq-22" value="[menu] click sur gestion de la sortie" style="html=1;verticalAlign=bottom;labelBackgroundColor=none;endArrow=block;endFill=1;endSize=6;align=left;strokeColor=#000000;fontSize=11;fontColor=#000000;" parent="xEL0n4jqzmxF0NtzZVze-1" edge="1">
                    <mxGeometry x="-0.5036" relative="1" as="geometry">
                        <mxPoint x="205" y="630" as="sourcePoint"/>
                        <mxPoint x="469.9999999999998" y="630" as="targetPoint"/>
                        <mxPoint as="offset"/>
                    </mxGeometry>
                </mxCell>
                <mxCell id="ICoUMrY1e1jBuwctVECq-23" value="Afficher gestion de la sortie" style="html=1;verticalAlign=bottom;labelBackgroundColor=none;endArrow=block;endFill=1;endSize=6;align=left;strokeColor=#000000;fontSize=11;fontColor=#000000;dashed=1;" parent="xEL0n4jqzmxF0NtzZVze-1" edge="1">
                    <mxGeometry x="0.3585" relative="1" as="geometry">
                        <mxPoint x="469.9999999999998" y="660" as="sourcePoint"/>
                        <mxPoint x="204.99999999999977" y="660.4100000000001" as="targetPoint"/>
                        <mxPoint as="offset"/>
                    </mxGeometry>
                </mxCell>
                <mxCell id="ICoUMrY1e1jBuwctVECq-24" value="[menu] click sur interface Fournisseur" style="html=1;verticalAlign=bottom;labelBackgroundColor=none;endArrow=block;endFill=1;endSize=6;align=left;strokeColor=#000000;fontSize=11;fontColor=#000000;" parent="xEL0n4jqzmxF0NtzZVze-1" edge="1">
                    <mxGeometry x="-0.6604" relative="1" as="geometry">
                        <mxPoint x="205" y="750" as="sourcePoint"/>
                        <mxPoint x="469.9999999999998" y="750" as="targetPoint"/>
                        <mxPoint as="offset"/>
                    </mxGeometry>
                </mxCell>
                <mxCell id="ICoUMrY1e1jBuwctVECq-25" value="Afficher les fournisseur" style="html=1;verticalAlign=bottom;labelBackgroundColor=none;endArrow=block;endFill=1;endSize=6;align=left;strokeColor=#000000;fontSize=11;fontColor=#000000;dashed=1;" parent="xEL0n4jqzmxF0NtzZVze-1" edge="1">
                    <mxGeometry x="0.3585" relative="1" as="geometry">
                        <mxPoint x="469.9999999999998" y="779" as="sourcePoint"/>
                        <mxPoint x="204.99999999999977" y="779.4100000000001" as="targetPoint"/>
                        <mxPoint as="offset"/>
                    </mxGeometry>
                </mxCell>
                <mxCell id="ICoUMrY1e1jBuwctVECq-26" value="[menu] click sur interface Service" style="html=1;verticalAlign=bottom;labelBackgroundColor=none;endArrow=block;endFill=1;endSize=6;align=left;strokeColor=#000000;fontSize=11;fontColor=#000000;" parent="xEL0n4jqzmxF0NtzZVze-1" edge="1">
                    <mxGeometry x="-0.5036" relative="1" as="geometry">
                        <mxPoint x="205" y="840" as="sourcePoint"/>
                        <mxPoint x="469.9999999999998" y="840" as="targetPoint"/>
                        <mxPoint as="offset"/>
                    </mxGeometry>
                </mxCell>
                <mxCell id="ICoUMrY1e1jBuwctVECq-27" value="Afficher les Services" style="html=1;verticalAlign=bottom;labelBackgroundColor=none;endArrow=block;endFill=1;endSize=6;align=left;strokeColor=#000000;fontSize=11;fontColor=#000000;dashed=1;" parent="xEL0n4jqzmxF0NtzZVze-1" edge="1">
                    <mxGeometry x="0.3585" relative="1" as="geometry">
                        <mxPoint x="469.9999999999998" y="862" as="sourcePoint"/>
                        <mxPoint x="204.99999999999977" y="862.4100000000001" as="targetPoint"/>
                        <mxPoint as="offset"/>
                    </mxGeometry>
                </mxCell>
                <mxCell id="lnKYlaiO8xWNqpGosRol-0" value="" style="rounded=0;whiteSpace=wrap;html=1;strokeWidth=2;strokeColor=#000000;fillColor=#FFFFFF;" parent="xEL0n4jqzmxF0NtzZVze-1" vertex="1">
                    <mxGeometry x="145" y="120" width="375" height="50" as="geometry"/>
                </mxCell>
                <mxCell id="lnKYlaiO8xWNqpGosRol-1" value="&lt;font color=&quot;#0a0a0a&quot;&gt;Ref&lt;/font&gt;" style="text;html=1;align=center;verticalAlign=middle;resizable=0;points=[];autosize=1;strokeColor=#000000;" parent="xEL0n4jqzmxF0NtzZVze-1" vertex="1">
                    <mxGeometry x="151" y="124" width="30" height="20" as="geometry"/>
                </mxCell>
                <mxCell id="lnKYlaiO8xWNqpGosRol-2" value="AUTHENTIFICATION" style="text;html=1;align=center;verticalAlign=middle;resizable=0;points=[];autosize=1;fontColor=#000000;" parent="xEL0n4jqzmxF0NtzZVze-1" vertex="1">
                    <mxGeometry x="265" y="140" width="130" height="20" as="geometry"/>
                </mxCell>
            </root>
        </mxGraphModel>
    </diagram>
    <diagram id="ehqC1-Pj750pZXV430NX" name="2_(diagramme de sÃ©quence) ajout d'article ---bref4">
        <mxGraphModel dx="1604" dy="790" grid="1" gridSize="10" guides="1" tooltips="1" connect="1" arrows="1" fold="1" page="0" pageScale="1" pageWidth="827" pageHeight="1169" background="#ffffff" math="0" shadow="0">
            <root>
                <mxCell id="YJPGM7DT5i-YtI5B95G7-0"/>
                <mxCell id="YJPGM7DT5i-YtI5B95G7-1" parent="YJPGM7DT5i-YtI5B95G7-0"/>
                <mxCell id="srQX-BswRHJPTmAb1l-E-0" value="&lt;font style=&quot;font-size: 11px&quot;&gt;APPLICATION&lt;/font&gt;" style="shape=umlLifeline;perimeter=lifelinePerimeter;whiteSpace=wrap;html=1;container=1;collapsible=0;recursiveResize=0;outlineConnect=0;labelBackgroundColor=none;strokeColor=#000000;strokeWidth=2;fillColor=#FFFFFF;gradientColor=none;fontSize=6;fontColor=#000000;" parent="YJPGM7DT5i-YtI5B95G7-1" vertex="1">
                    <mxGeometry x="215" y="60" width="100" height="980" as="geometry"/>
                </mxCell>
                <mxCell id="srQX-BswRHJPTmAb1l-E-1" value="" style="html=1;points=[];perimeter=orthogonalPerimeter;" parent="srQX-BswRHJPTmAb1l-E-0" vertex="1">
                    <mxGeometry x="45" y="230" width="10" height="70" as="geometry"/>
                </mxCell>
                <mxCell id="OlPZi9oWgrDpR04gBook-0" value="" style="html=1;points=[];perimeter=orthogonalPerimeter;" parent="srQX-BswRHJPTmAb1l-E-0" vertex="1">
                    <mxGeometry x="45" y="320" width="10" height="150" as="geometry"/>
                </mxCell>
                <mxCell id="enzY4cN_2IJ1pmmo1G_T-0" value="" style="html=1;points=[];perimeter=orthogonalPerimeter;strokeColor=#000000;strokeWidth=2;fillColor=none;fontColor=#000000;" parent="srQX-BswRHJPTmAb1l-E-0" vertex="1">
                    <mxGeometry x="45" y="362.5" width="10" height="25" as="geometry"/>
                </mxCell>
                <mxCell id="enzY4cN_2IJ1pmmo1G_T-1" value="VÃ©rification&amp;nbsp;" style="edgeStyle=orthogonalEdgeStyle;html=1;align=left;spacingLeft=2;endArrow=block;rounded=0;entryX=1;entryY=0;fontColor=#000000;labelBackgroundColor=none;strokeColor=#000000;" parent="srQX-BswRHJPTmAb1l-E-0" target="enzY4cN_2IJ1pmmo1G_T-0" edge="1">
                    <mxGeometry relative="1" as="geometry">
                        <mxPoint x="55" y="350" as="sourcePoint"/>
                        <Array as="points">
                            <mxPoint x="75" y="350"/>
                            <mxPoint x="75" y="363"/>
                        </Array>
                    </mxGeometry>
                </mxCell>
                <mxCell id="enzY4cN_2IJ1pmmo1G_T-3" value="" style="html=1;points=[];perimeter=orthogonalPerimeter;" parent="srQX-BswRHJPTmAb1l-E-0" vertex="1">
                    <mxGeometry x="45" y="505" width="10" height="105" as="geometry"/>
                </mxCell>
                <mxCell id="enzY4cN_2IJ1pmmo1G_T-9" value="" style="html=1;points=[];perimeter=orthogonalPerimeter;strokeColor=#000000;strokeWidth=2;fillColor=none;fontColor=#000000;" parent="srQX-BswRHJPTmAb1l-E-0" vertex="1">
                    <mxGeometry x="45" y="550" width="10" height="25" as="geometry"/>
                </mxCell>
                <mxCell id="enzY4cN_2IJ1pmmo1G_T-10" value="VÃ©rification&amp;nbsp;" style="edgeStyle=orthogonalEdgeStyle;html=1;align=left;spacingLeft=2;endArrow=block;rounded=0;entryX=1;entryY=0;fontColor=#000000;labelBackgroundColor=none;strokeColor=#000000;" parent="srQX-BswRHJPTmAb1l-E-0" target="enzY4cN_2IJ1pmmo1G_T-9" edge="1">
                    <mxGeometry relative="1" as="geometry">
                        <mxPoint x="55" y="537.5" as="sourcePoint"/>
                        <Array as="points">
                            <mxPoint x="75" y="537.5"/>
                            <mxPoint x="75" y="550.5"/>
                        </Array>
                    </mxGeometry>
                </mxCell>
                <mxCell id="srQX-BswRHJPTmAb1l-E-2" value="User" style="shape=umlActor;verticalLabelPosition=bottom;verticalAlign=top;html=1;labelBackgroundColor=none;strokeColor=#000000;strokeWidth=2;fillColor=#FFFFFF;gradientColor=none;fontSize=11;fontColor=#000000;" parent="YJPGM7DT5i-YtI5B95G7-1" vertex="1">
                    <mxGeometry x="-30" y="50" width="30" height="60" as="geometry"/>
                </mxCell>
                <mxCell id="srQX-BswRHJPTmAb1l-E-3" value="" style="html=1;points=[];perimeter=orthogonalPerimeter;" parent="YJPGM7DT5i-YtI5B95G7-1" vertex="1">
                    <mxGeometry x="-20" y="140" width="10" height="900" as="geometry"/>
                </mxCell>
                <mxCell id="srQX-BswRHJPTmAb1l-E-4" value="Demande de formulaire&amp;nbsp; d'ajout article&amp;nbsp;" style="html=1;verticalAlign=bottom;labelBackgroundColor=none;endArrow=block;endFill=1;endSize=6;align=left;strokeColor=#000000;fontSize=11;fontColor=#000000;" parent="YJPGM7DT5i-YtI5B95G7-1" target="srQX-BswRHJPTmAb1l-E-0" edge="1">
                    <mxGeometry x="-0.635" relative="1" as="geometry">
                        <mxPoint x="-10" y="310" as="sourcePoint"/>
                        <mxPoint x="170" y="310" as="targetPoint"/>
                        <mxPoint as="offset"/>
                    </mxGeometry>
                </mxCell>
                <mxCell id="srQX-BswRHJPTmAb1l-E-6" value="Formulaire&amp;nbsp; d'ajout article&amp;nbsp;" style="html=1;verticalAlign=bottom;labelBackgroundColor=none;endArrow=block;endFill=1;endSize=6;align=left;strokeColor=#000000;fontSize=11;fontColor=#000000;dashed=1;" parent="YJPGM7DT5i-YtI5B95G7-1" edge="1">
                    <mxGeometry x="0.3585" relative="1" as="geometry">
                        <mxPoint x="254.99999999999977" y="340" as="sourcePoint"/>
                        <mxPoint x="-10.000000000000227" y="340.4100000000001" as="targetPoint"/>
                        <mxPoint as="offset"/>
                    </mxGeometry>
                </mxCell>
                <mxCell id="3jQbKQGlJ7xZCdtcDPXy-0" value="&lt;font style=&quot;font-size: 12px&quot;&gt;BD&lt;/font&gt;" style="shape=umlLifeline;perimeter=lifelinePerimeter;whiteSpace=wrap;html=1;container=1;collapsible=0;recursiveResize=0;outlineConnect=0;labelBackgroundColor=none;strokeColor=#000000;strokeWidth=2;fillColor=#FFFFFF;gradientColor=none;fontSize=6;fontColor=#000000;" parent="YJPGM7DT5i-YtI5B95G7-1" vertex="1">
                    <mxGeometry x="470" y="60" width="100" height="980" as="geometry"/>
                </mxCell>
                <mxCell id="J7yVa-IaYInlHC2wEciY-4" value="" style="html=1;points=[];perimeter=orthogonalPerimeter;" parent="3jQbKQGlJ7xZCdtcDPXy-0" vertex="1">
                    <mxGeometry x="45" y="641" width="10" height="105" as="geometry"/>
                </mxCell>
                <mxCell id="J7yVa-IaYInlHC2wEciY-5" value="" style="html=1;points=[];perimeter=orthogonalPerimeter;strokeColor=#000000;strokeWidth=2;fillColor=none;fontColor=#000000;" parent="3jQbKQGlJ7xZCdtcDPXy-0" vertex="1">
                    <mxGeometry x="45" y="642.5" width="10" height="25" as="geometry"/>
                </mxCell>
                <mxCell id="J7yVa-IaYInlHC2wEciY-6" value="VÃ©rification&amp;nbsp; Existence ()" style="edgeStyle=orthogonalEdgeStyle;html=1;align=left;spacingLeft=2;endArrow=block;rounded=0;entryX=1;entryY=0;fontColor=#000000;labelBackgroundColor=none;strokeColor=#000000;" parent="3jQbKQGlJ7xZCdtcDPXy-0" edge="1">
                    <mxGeometry x="-0.1442" relative="1" as="geometry">
                        <mxPoint x="50.72222222222217" y="631" as="sourcePoint"/>
                        <Array as="points">
                            <mxPoint x="75" y="631"/>
                            <mxPoint x="75" y="644"/>
                        </Array>
                        <mxPoint x="55" y="643.5" as="targetPoint"/>
                        <mxPoint as="offset"/>
                    </mxGeometry>
                </mxCell>
                <mxCell id="srQX-BswRHJPTmAb1l-E-18" value="" style="rounded=0;whiteSpace=wrap;html=1;strokeWidth=2;strokeColor=#000000;fillColor=#FFFFFF;" parent="YJPGM7DT5i-YtI5B95G7-1" vertex="1">
                    <mxGeometry x="-75" y="177" width="670" height="50" as="geometry"/>
                </mxCell>
                <mxCell id="srQX-BswRHJPTmAb1l-E-19" value="&lt;font color=&quot;#0a0a0a&quot;&gt;Ref&lt;/font&gt;" style="text;html=1;align=center;verticalAlign=middle;resizable=0;points=[];autosize=1;strokeColor=#000000;" parent="YJPGM7DT5i-YtI5B95G7-1" vertex="1">
                    <mxGeometry x="-64" y="184" width="30" height="20" as="geometry"/>
                </mxCell>
                <mxCell id="srQX-BswRHJPTmAb1l-E-20" value="AUTHENTIFICATION" style="text;html=1;align=center;verticalAlign=middle;resizable=0;points=[];autosize=1;fontColor=#000000;" parent="YJPGM7DT5i-YtI5B95G7-1" vertex="1">
                    <mxGeometry x="185" y="192" width="130" height="20" as="geometry"/>
                </mxCell>
                <mxCell id="OlPZi9oWgrDpR04gBook-1" value="Saisir les informations et envoie la formulaire" style="html=1;verticalAlign=bottom;labelBackgroundColor=none;endArrow=block;endFill=1;endSize=6;align=left;strokeColor=#000000;fontSize=11;fontColor=#000000;" parent="YJPGM7DT5i-YtI5B95G7-1" edge="1">
                    <mxGeometry x="-0.7692" relative="1" as="geometry">
                        <mxPoint x="-10" y="400" as="sourcePoint"/>
                        <mxPoint x="250" y="400" as="targetPoint"/>
                        <mxPoint as="offset"/>
                    </mxGeometry>
                </mxCell>
                <mxCell id="enzY4cN_2IJ1pmmo1G_T-2" value="Renvoie du Formulaire" style="html=1;verticalAlign=bottom;labelBackgroundColor=none;endArrow=block;endFill=1;endSize=6;align=left;strokeColor=#000000;fontSize=11;fontColor=#000000;dashed=1;" parent="YJPGM7DT5i-YtI5B95G7-1" edge="1">
                    <mxGeometry x="0.3585" relative="1" as="geometry">
                        <mxPoint x="254.99999999999977" y="510" as="sourcePoint"/>
                        <mxPoint x="-10.000000000000227" y="510.4100000000001" as="targetPoint"/>
                        <mxPoint as="offset"/>
                    </mxGeometry>
                </mxCell>
                <mxCell id="enzY4cN_2IJ1pmmo1G_T-4" value="Saisir les informations et envoie la formulaire" style="html=1;verticalAlign=bottom;labelBackgroundColor=none;endArrow=block;endFill=1;endSize=6;align=left;strokeColor=#000000;fontSize=11;fontColor=#000000;" parent="YJPGM7DT5i-YtI5B95G7-1" edge="1">
                    <mxGeometry x="-0.7692" relative="1" as="geometry">
                        <mxPoint x="-10" y="580" as="sourcePoint"/>
                        <mxPoint x="250" y="580" as="targetPoint"/>
                        <mxPoint as="offset"/>
                    </mxGeometry>
                </mxCell>
                <mxCell id="J7yVa-IaYInlHC2wEciY-0" value="" style="rounded=0;whiteSpace=wrap;html=1;fillColor=none;strokeWidth=2;strokeColor=#000000;" parent="YJPGM7DT5i-YtI5B95G7-1" vertex="1">
                    <mxGeometry x="-160" y="485" width="550" height="150" as="geometry"/>
                </mxCell>
                <mxCell id="J7yVa-IaYInlHC2wEciY-1" value="&lt;font color=&quot;#0a0a0a&quot;&gt;Loop&lt;/font&gt;" style="text;html=1;align=center;verticalAlign=middle;resizable=0;points=[];autosize=1;strokeColor=#000000;" parent="YJPGM7DT5i-YtI5B95G7-1" vertex="1">
                    <mxGeometry x="-155" y="493" width="40" height="20" as="geometry"/>
                </mxCell>
                <mxCell id="J7yVa-IaYInlHC2wEciY-2" value="Champ manquant&amp;nbsp;" style="text;html=1;align=center;verticalAlign=middle;resizable=0;points=[];autosize=1;fontColor=#000000;" parent="YJPGM7DT5i-YtI5B95G7-1" vertex="1">
                    <mxGeometry x="-140" y="540" width="110" height="20" as="geometry"/>
                </mxCell>
                <mxCell id="J7yVa-IaYInlHC2wEciY-3" value="Renvoie de la requete" style="html=1;verticalAlign=bottom;labelBackgroundColor=none;endArrow=block;endFill=1;endSize=6;align=left;strokeColor=#000000;fontSize=11;fontColor=#000000;" parent="YJPGM7DT5i-YtI5B95G7-1" source="srQX-BswRHJPTmAb1l-E-0" edge="1">
                    <mxGeometry x="-0.7692" relative="1" as="geometry">
                        <mxPoint x="290" y="680" as="sourcePoint"/>
                        <mxPoint x="520" y="680" as="targetPoint"/>
                        <mxPoint as="offset"/>
                    </mxGeometry>
                </mxCell>
                <mxCell id="J7yVa-IaYInlHC2wEciY-7" value="Returner la rÃ©sultat" style="html=1;verticalAlign=bottom;labelBackgroundColor=none;endArrow=block;endFill=1;endSize=6;align=left;strokeColor=#000000;fontSize=11;fontColor=#000000;dashed=1;" parent="YJPGM7DT5i-YtI5B95G7-1" edge="1">
                    <mxGeometry x="0.3585" relative="1" as="geometry">
                        <mxPoint x="510" y="710" as="sourcePoint"/>
                        <mxPoint x="269.9999999999998" y="710.4100000000001" as="targetPoint"/>
                        <mxPoint as="offset"/>
                    </mxGeometry>
                </mxCell>
                <mxCell id="J7yVa-IaYInlHC2wEciY-8" value="Ajout d'article()" style="html=1;verticalAlign=bottom;labelBackgroundColor=none;endArrow=block;endFill=1;endSize=6;align=left;strokeColor=#000000;fontSize=11;fontColor=#000000;" parent="YJPGM7DT5i-YtI5B95G7-1" edge="1">
                    <mxGeometry x="-0.3204" relative="1" as="geometry">
                        <mxPoint x="280" y="800" as="sourcePoint"/>
                        <mxPoint x="515.43" y="800" as="targetPoint"/>
                        <mxPoint as="offset"/>
                    </mxGeometry>
                </mxCell>
                <mxCell id="qn-6V7A_4UGZu7hNvmFg-0" value="" style="rounded=0;whiteSpace=wrap;html=1;fillColor=none;strokeWidth=2;strokeColor=#000000;" parent="YJPGM7DT5i-YtI5B95G7-1" vertex="1">
                    <mxGeometry x="-160" y="760" width="720" height="200" as="geometry"/>
                </mxCell>
                <mxCell id="qn-6V7A_4UGZu7hNvmFg-1" value="Message de confirmation" style="html=1;verticalAlign=bottom;labelBackgroundColor=none;endArrow=block;endFill=1;endSize=6;align=left;strokeColor=#000000;fontSize=11;fontColor=#000000;dashed=1;" parent="YJPGM7DT5i-YtI5B95G7-1" edge="1">
                    <mxGeometry x="0.3585" relative="1" as="geometry">
                        <mxPoint x="255" y="830" as="sourcePoint"/>
                        <mxPoint x="-10.000000000000227" y="830.4100000000001" as="targetPoint"/>
                        <mxPoint as="offset"/>
                    </mxGeometry>
                </mxCell>
                <mxCell id="qn-6V7A_4UGZu7hNvmFg-2" value="Message d'erreur" style="html=1;verticalAlign=bottom;labelBackgroundColor=none;endArrow=block;endFill=1;endSize=6;align=left;strokeColor=#000000;fontSize=11;fontColor=#000000;dashed=1;" parent="YJPGM7DT5i-YtI5B95G7-1" edge="1">
                    <mxGeometry x="0.3585" relative="1" as="geometry">
                        <mxPoint x="254.99999999999977" y="930" as="sourcePoint"/>
                        <mxPoint x="-10.000000000000227" y="930.4100000000001" as="targetPoint"/>
                        <mxPoint as="offset"/>
                    </mxGeometry>
                </mxCell>
                <mxCell id="qn-6V7A_4UGZu7hNvmFg-3" value="&lt;font color=&quot;#0a0a0a&quot;&gt;ALT&lt;/font&gt;" style="text;html=1;align=center;verticalAlign=middle;resizable=0;points=[];autosize=1;strokeColor=#000000;" parent="YJPGM7DT5i-YtI5B95G7-1" vertex="1">
                    <mxGeometry x="-140" y="771" width="40" height="20" as="geometry"/>
                </mxCell>
                <mxCell id="qn-6V7A_4UGZu7hNvmFg-4" value="" style="html=1;verticalAlign=bottom;labelBackgroundColor=none;endArrow=none;endFill=0;endSize=6;align=left;strokeColor=#000000;fontSize=11;fontColor=#000000;dashed=1;" parent="YJPGM7DT5i-YtI5B95G7-1" edge="1">
                    <mxGeometry x="0.3585" relative="1" as="geometry">
                        <mxPoint x="560" y="879.9999999999999" as="sourcePoint"/>
                        <mxPoint x="-160" y="879.9999999999999" as="targetPoint"/>
                        <mxPoint as="offset"/>
                    </mxGeometry>
                </mxCell>
            </root>
        </mxGraphModel>
    </diagram>
    <diagram id="OylApgIz4bk0qtLKD-v-" name="2_(diagramme de sÃ©quence) Modification d'article ---bref4">
        <mxGraphModel dx="1604" dy="790" grid="1" gridSize="10" guides="1" tooltips="1" connect="1" arrows="1" fold="1" page="0" pageScale="1" pageWidth="827" pageHeight="1169" background="#ffffff" math="0" shadow="0">
            <root>
                <mxCell id="_2Zx4C2M8pC9evny8DRR-0"/>
                <mxCell id="_2Zx4C2M8pC9evny8DRR-1" parent="_2Zx4C2M8pC9evny8DRR-0"/>
                <mxCell id="jO2EGscZS9GlD_Eq_DGJ-0" value="&lt;font style=&quot;font-size: 11px&quot;&gt;APPLICATION&lt;/font&gt;" style="shape=umlLifeline;perimeter=lifelinePerimeter;whiteSpace=wrap;html=1;container=1;collapsible=0;recursiveResize=0;outlineConnect=0;labelBackgroundColor=none;strokeColor=#000000;strokeWidth=2;fillColor=#FFFFFF;gradientColor=none;fontSize=6;fontColor=#000000;" parent="_2Zx4C2M8pC9evny8DRR-1" vertex="1">
                    <mxGeometry x="315" y="50" width="100" height="980" as="geometry"/>
                </mxCell>
                <mxCell id="jO2EGscZS9GlD_Eq_DGJ-1" value="" style="html=1;points=[];perimeter=orthogonalPerimeter;" parent="jO2EGscZS9GlD_Eq_DGJ-0" vertex="1">
                    <mxGeometry x="45" y="230" width="10" height="70" as="geometry"/>
                </mxCell>
                <mxCell id="jO2EGscZS9GlD_Eq_DGJ-2" value="" style="html=1;points=[];perimeter=orthogonalPerimeter;" parent="jO2EGscZS9GlD_Eq_DGJ-0" vertex="1">
                    <mxGeometry x="45" y="320" width="10" height="150" as="geometry"/>
                </mxCell>
                <mxCell id="jO2EGscZS9GlD_Eq_DGJ-3" value="" style="html=1;points=[];perimeter=orthogonalPerimeter;strokeColor=#000000;strokeWidth=2;fillColor=none;fontColor=#000000;" parent="jO2EGscZS9GlD_Eq_DGJ-0" vertex="1">
                    <mxGeometry x="45" y="362.5" width="10" height="25" as="geometry"/>
                </mxCell>
                <mxCell id="jO2EGscZS9GlD_Eq_DGJ-4" value="VÃ©rification&amp;nbsp;" style="edgeStyle=orthogonalEdgeStyle;html=1;align=left;spacingLeft=2;endArrow=block;rounded=0;entryX=1;entryY=0;fontColor=#000000;labelBackgroundColor=none;strokeColor=#000000;" parent="jO2EGscZS9GlD_Eq_DGJ-0" target="jO2EGscZS9GlD_Eq_DGJ-3" edge="1">
                    <mxGeometry relative="1" as="geometry">
                        <mxPoint x="55" y="350" as="sourcePoint"/>
                        <Array as="points">
                            <mxPoint x="75" y="350"/>
                            <mxPoint x="75" y="363"/>
                        </Array>
                    </mxGeometry>
                </mxCell>
                <mxCell id="jO2EGscZS9GlD_Eq_DGJ-5" value="" style="html=1;points=[];perimeter=orthogonalPerimeter;" parent="jO2EGscZS9GlD_Eq_DGJ-0" vertex="1">
                    <mxGeometry x="45" y="505" width="10" height="105" as="geometry"/>
                </mxCell>
                <mxCell id="jO2EGscZS9GlD_Eq_DGJ-6" value="" style="html=1;points=[];perimeter=orthogonalPerimeter;strokeColor=#000000;strokeWidth=2;fillColor=none;fontColor=#000000;" parent="jO2EGscZS9GlD_Eq_DGJ-0" vertex="1">
                    <mxGeometry x="45" y="550" width="10" height="25" as="geometry"/>
                </mxCell>
                <mxCell id="jO2EGscZS9GlD_Eq_DGJ-7" value="VÃ©rification&amp;nbsp;" style="edgeStyle=orthogonalEdgeStyle;html=1;align=left;spacingLeft=2;endArrow=block;rounded=0;entryX=1;entryY=0;fontColor=#000000;labelBackgroundColor=none;strokeColor=#000000;" parent="jO2EGscZS9GlD_Eq_DGJ-0" target="jO2EGscZS9GlD_Eq_DGJ-6" edge="1">
                    <mxGeometry relative="1" as="geometry">
                        <mxPoint x="55" y="537.5" as="sourcePoint"/>
                        <Array as="points">
                            <mxPoint x="75" y="537.5"/>
                            <mxPoint x="75" y="550.5"/>
                        </Array>
                    </mxGeometry>
                </mxCell>
                <mxCell id="jO2EGscZS9GlD_Eq_DGJ-8" value="User" style="shape=umlActor;verticalLabelPosition=bottom;verticalAlign=top;html=1;labelBackgroundColor=none;strokeColor=#000000;strokeWidth=2;fillColor=#FFFFFF;gradientColor=none;fontSize=11;fontColor=#000000;" parent="_2Zx4C2M8pC9evny8DRR-1" vertex="1">
                    <mxGeometry x="70" y="40" width="30" height="60" as="geometry"/>
                </mxCell>
                <mxCell id="jO2EGscZS9GlD_Eq_DGJ-9" value="" style="html=1;points=[];perimeter=orthogonalPerimeter;" parent="_2Zx4C2M8pC9evny8DRR-1" vertex="1">
                    <mxGeometry x="80" y="130" width="10" height="900" as="geometry"/>
                </mxCell>
                <mxCell id="jO2EGscZS9GlD_Eq_DGJ-10" value="Demande de formulaire&amp;nbsp; Modification d' article&amp;nbsp;" style="html=1;verticalAlign=bottom;labelBackgroundColor=none;endArrow=block;endFill=1;endSize=6;align=left;strokeColor=#000000;fontSize=11;fontColor=#000000;" parent="_2Zx4C2M8pC9evny8DRR-1" target="jO2EGscZS9GlD_Eq_DGJ-0" edge="1">
                    <mxGeometry x="-0.854" relative="1" as="geometry">
                        <mxPoint x="90" y="300" as="sourcePoint"/>
                        <mxPoint x="270" y="300" as="targetPoint"/>
                        <mxPoint as="offset"/>
                    </mxGeometry>
                </mxCell>
                <mxCell id="jO2EGscZS9GlD_Eq_DGJ-11" value="Formulaire&amp;nbsp; Modification d'article&amp;nbsp;" style="html=1;verticalAlign=bottom;labelBackgroundColor=none;endArrow=block;endFill=1;endSize=6;align=left;strokeColor=#000000;fontSize=11;fontColor=#000000;dashed=1;" parent="_2Zx4C2M8pC9evny8DRR-1" edge="1">
                    <mxGeometry x="0.5472" relative="1" as="geometry">
                        <mxPoint x="354.9999999999998" y="330" as="sourcePoint"/>
                        <mxPoint x="89.99999999999977" y="330.4100000000001" as="targetPoint"/>
                        <mxPoint x="1" as="offset"/>
                    </mxGeometry>
                </mxCell>
                <mxCell id="jO2EGscZS9GlD_Eq_DGJ-12" value="&lt;font style=&quot;font-size: 12px&quot;&gt;BD&lt;/font&gt;" style="shape=umlLifeline;perimeter=lifelinePerimeter;whiteSpace=wrap;html=1;container=1;collapsible=0;recursiveResize=0;outlineConnect=0;labelBackgroundColor=none;strokeColor=#000000;strokeWidth=2;fillColor=#FFFFFF;gradientColor=none;fontSize=6;fontColor=#000000;" parent="_2Zx4C2M8pC9evny8DRR-1" vertex="1">
                    <mxGeometry x="570" y="50" width="100" height="980" as="geometry"/>
                </mxCell>
                <mxCell id="jO2EGscZS9GlD_Eq_DGJ-13" value="" style="html=1;points=[];perimeter=orthogonalPerimeter;" parent="jO2EGscZS9GlD_Eq_DGJ-12" vertex="1">
                    <mxGeometry x="45" y="641" width="10" height="105" as="geometry"/>
                </mxCell>
                <mxCell id="jO2EGscZS9GlD_Eq_DGJ-14" value="" style="html=1;points=[];perimeter=orthogonalPerimeter;strokeColor=#000000;strokeWidth=2;fillColor=none;fontColor=#000000;" parent="jO2EGscZS9GlD_Eq_DGJ-12" vertex="1">
                    <mxGeometry x="45" y="642.5" width="10" height="25" as="geometry"/>
                </mxCell>
                <mxCell id="jO2EGscZS9GlD_Eq_DGJ-15" value="VÃ©rification&amp;nbsp; Existence ()" style="edgeStyle=orthogonalEdgeStyle;html=1;align=left;spacingLeft=2;endArrow=block;rounded=0;entryX=1;entryY=0;fontColor=#000000;labelBackgroundColor=none;strokeColor=#000000;" parent="jO2EGscZS9GlD_Eq_DGJ-12" edge="1">
                    <mxGeometry x="-0.1442" relative="1" as="geometry">
                        <mxPoint x="50.72222222222217" y="631" as="sourcePoint"/>
                        <Array as="points">
                            <mxPoint x="75" y="631"/>
                            <mxPoint x="75" y="644"/>
                        </Array>
                        <mxPoint x="55" y="643.5" as="targetPoint"/>
                        <mxPoint as="offset"/>
                    </mxGeometry>
                </mxCell>
                <mxCell id="jO2EGscZS9GlD_Eq_DGJ-16" value="" style="rounded=0;whiteSpace=wrap;html=1;strokeWidth=2;strokeColor=#000000;fillColor=#FFFFFF;" parent="_2Zx4C2M8pC9evny8DRR-1" vertex="1">
                    <mxGeometry x="25" y="167" width="670" height="50" as="geometry"/>
                </mxCell>
                <mxCell id="jO2EGscZS9GlD_Eq_DGJ-17" value="&lt;font color=&quot;#0a0a0a&quot;&gt;Ref&lt;/font&gt;" style="text;html=1;align=center;verticalAlign=middle;resizable=0;points=[];autosize=1;strokeColor=#000000;" parent="_2Zx4C2M8pC9evny8DRR-1" vertex="1">
                    <mxGeometry x="36" y="174" width="30" height="20" as="geometry"/>
                </mxCell>
                <mxCell id="jO2EGscZS9GlD_Eq_DGJ-18" value="AUTHENTIFICATION" style="text;html=1;align=center;verticalAlign=middle;resizable=0;points=[];autosize=1;fontColor=#000000;" parent="_2Zx4C2M8pC9evny8DRR-1" vertex="1">
                    <mxGeometry x="285" y="182" width="130" height="20" as="geometry"/>
                </mxCell>
                <mxCell id="jO2EGscZS9GlD_Eq_DGJ-19" value="Saisir les informations et envoie la formulaire" style="html=1;verticalAlign=bottom;labelBackgroundColor=none;endArrow=block;endFill=1;endSize=6;align=left;strokeColor=#000000;fontSize=11;fontColor=#000000;" parent="_2Zx4C2M8pC9evny8DRR-1" edge="1">
                    <mxGeometry x="-0.7692" relative="1" as="geometry">
                        <mxPoint x="90" y="390" as="sourcePoint"/>
                        <mxPoint x="350" y="390" as="targetPoint"/>
                        <mxPoint as="offset"/>
                    </mxGeometry>
                </mxCell>
                <mxCell id="jO2EGscZS9GlD_Eq_DGJ-20" value="Renvoie du Formulaire" style="html=1;verticalAlign=bottom;labelBackgroundColor=none;endArrow=block;endFill=1;endSize=6;align=left;strokeColor=#000000;fontSize=11;fontColor=#000000;dashed=1;" parent="_2Zx4C2M8pC9evny8DRR-1" edge="1">
                    <mxGeometry x="0.3585" relative="1" as="geometry">
                        <mxPoint x="354.9999999999998" y="500" as="sourcePoint"/>
                        <mxPoint x="89.99999999999977" y="500.4100000000001" as="targetPoint"/>
                        <mxPoint as="offset"/>
                    </mxGeometry>
                </mxCell>
                <mxCell id="jO2EGscZS9GlD_Eq_DGJ-21" value="Saisir les informations et envoie la formulaire" style="html=1;verticalAlign=bottom;labelBackgroundColor=none;endArrow=block;endFill=1;endSize=6;align=left;strokeColor=#000000;fontSize=11;fontColor=#000000;" parent="_2Zx4C2M8pC9evny8DRR-1" edge="1">
                    <mxGeometry x="-0.7692" relative="1" as="geometry">
                        <mxPoint x="90" y="570" as="sourcePoint"/>
                        <mxPoint x="350" y="570" as="targetPoint"/>
                        <mxPoint as="offset"/>
                    </mxGeometry>
                </mxCell>
                <mxCell id="jO2EGscZS9GlD_Eq_DGJ-22" value="" style="rounded=0;whiteSpace=wrap;html=1;fillColor=none;strokeWidth=2;strokeColor=#000000;" parent="_2Zx4C2M8pC9evny8DRR-1" vertex="1">
                    <mxGeometry x="-60" y="475" width="550" height="150" as="geometry"/>
                </mxCell>
                <mxCell id="jO2EGscZS9GlD_Eq_DGJ-23" value="&lt;font color=&quot;#0a0a0a&quot;&gt;Loop&lt;/font&gt;" style="text;html=1;align=center;verticalAlign=middle;resizable=0;points=[];autosize=1;strokeColor=#000000;" parent="_2Zx4C2M8pC9evny8DRR-1" vertex="1">
                    <mxGeometry x="-55" y="483" width="40" height="20" as="geometry"/>
                </mxCell>
                <mxCell id="jO2EGscZS9GlD_Eq_DGJ-24" value="Champ manquant&amp;nbsp;" style="text;html=1;align=center;verticalAlign=middle;resizable=0;points=[];autosize=1;fontColor=#000000;" parent="_2Zx4C2M8pC9evny8DRR-1" vertex="1">
                    <mxGeometry x="-40" y="530" width="110" height="20" as="geometry"/>
                </mxCell>
                <mxCell id="jO2EGscZS9GlD_Eq_DGJ-25" value="Renvoie de la requete" style="html=1;verticalAlign=bottom;labelBackgroundColor=none;endArrow=block;endFill=1;endSize=6;align=left;strokeColor=#000000;fontSize=11;fontColor=#000000;" parent="_2Zx4C2M8pC9evny8DRR-1" source="jO2EGscZS9GlD_Eq_DGJ-0" edge="1">
                    <mxGeometry x="-0.7692" relative="1" as="geometry">
                        <mxPoint x="390" y="670" as="sourcePoint"/>
                        <mxPoint x="620" y="670" as="targetPoint"/>
                        <mxPoint as="offset"/>
                    </mxGeometry>
                </mxCell>
                <mxCell id="jO2EGscZS9GlD_Eq_DGJ-26" value="Returner la rÃ©sultat" style="html=1;verticalAlign=bottom;labelBackgroundColor=none;endArrow=block;endFill=1;endSize=6;align=left;strokeColor=#000000;fontSize=11;fontColor=#000000;dashed=1;" parent="_2Zx4C2M8pC9evny8DRR-1" edge="1">
                    <mxGeometry x="0.3585" relative="1" as="geometry">
                        <mxPoint x="610" y="700" as="sourcePoint"/>
                        <mxPoint x="369.9999999999998" y="700.4100000000001" as="targetPoint"/>
                        <mxPoint as="offset"/>
                    </mxGeometry>
                </mxCell>
                <mxCell id="jO2EGscZS9GlD_Eq_DGJ-27" value="Modification d'article()" style="html=1;verticalAlign=bottom;labelBackgroundColor=none;endArrow=block;endFill=1;endSize=6;align=left;strokeColor=#000000;fontSize=11;fontColor=#000000;" parent="_2Zx4C2M8pC9evny8DRR-1" edge="1">
                    <mxGeometry x="-0.3204" relative="1" as="geometry">
                        <mxPoint x="380" y="790" as="sourcePoint"/>
                        <mxPoint x="615.4300000000001" y="790" as="targetPoint"/>
                        <mxPoint as="offset"/>
                    </mxGeometry>
                </mxCell>
                <mxCell id="jO2EGscZS9GlD_Eq_DGJ-28" value="" style="rounded=0;whiteSpace=wrap;html=1;fillColor=none;strokeWidth=2;strokeColor=#000000;" parent="_2Zx4C2M8pC9evny8DRR-1" vertex="1">
                    <mxGeometry x="-60" y="761" width="720" height="200" as="geometry"/>
                </mxCell>
                <mxCell id="jO2EGscZS9GlD_Eq_DGJ-29" value="Message de confirmation" style="html=1;verticalAlign=bottom;labelBackgroundColor=none;endArrow=block;endFill=1;endSize=6;align=left;strokeColor=#000000;fontSize=11;fontColor=#000000;dashed=1;" parent="_2Zx4C2M8pC9evny8DRR-1" edge="1">
                    <mxGeometry x="0.3585" relative="1" as="geometry">
                        <mxPoint x="355" y="820" as="sourcePoint"/>
                        <mxPoint x="89.99999999999977" y="820.4100000000001" as="targetPoint"/>
                        <mxPoint as="offset"/>
                    </mxGeometry>
                </mxCell>
                <mxCell id="jO2EGscZS9GlD_Eq_DGJ-30" value="Message d'erreur" style="html=1;verticalAlign=bottom;labelBackgroundColor=none;endArrow=block;endFill=1;endSize=6;align=left;strokeColor=#000000;fontSize=11;fontColor=#000000;dashed=1;" parent="_2Zx4C2M8pC9evny8DRR-1" edge="1">
                    <mxGeometry x="0.3585" relative="1" as="geometry">
                        <mxPoint x="354.9999999999998" y="920" as="sourcePoint"/>
                        <mxPoint x="89.99999999999977" y="920.4100000000001" as="targetPoint"/>
                        <mxPoint as="offset"/>
                    </mxGeometry>
                </mxCell>
                <mxCell id="jO2EGscZS9GlD_Eq_DGJ-31" value="&lt;font color=&quot;#0a0a0a&quot;&gt;ALT&lt;/font&gt;" style="text;html=1;align=center;verticalAlign=middle;resizable=0;points=[];autosize=1;strokeColor=#000000;" parent="_2Zx4C2M8pC9evny8DRR-1" vertex="1">
                    <mxGeometry x="-40" y="761" width="40" height="20" as="geometry"/>
                </mxCell>
                <mxCell id="jO2EGscZS9GlD_Eq_DGJ-32" value="" style="html=1;verticalAlign=bottom;labelBackgroundColor=none;endArrow=none;endFill=0;endSize=6;align=left;strokeColor=#000000;fontSize=11;fontColor=#000000;dashed=1;" parent="_2Zx4C2M8pC9evny8DRR-1" edge="1">
                    <mxGeometry x="0.3585" relative="1" as="geometry">
                        <mxPoint x="660" y="870" as="sourcePoint"/>
                        <mxPoint x="-60" y="870" as="targetPoint"/>
                        <mxPoint as="offset"/>
                    </mxGeometry>
                </mxCell>
            </root>
        </mxGraphModel>
    </diagram>
    <diagram id="K6aKFfRNtjvZ1uAQ_Xvh" name="2_(diagramme de sÃ©quence) suppression d'article ---bref4">
        <mxGraphModel dx="1230" dy="545" grid="1" gridSize="10" guides="1" tooltips="1" connect="1" arrows="1" fold="1" page="0" pageScale="1" pageWidth="827" pageHeight="1169" background="#ffffff" math="0" shadow="0">
            <root>
                <mxCell id="4ehdOMiuZxZA9-4GaejZ-0"/>
                <mxCell id="4ehdOMiuZxZA9-4GaejZ-1" parent="4ehdOMiuZxZA9-4GaejZ-0"/>
                <mxCell id="4ehdOMiuZxZA9-4GaejZ-2" value="&lt;font style=&quot;font-size: 11px&quot;&gt;APPLICATION&lt;/font&gt;" style="shape=umlLifeline;perimeter=lifelinePerimeter;whiteSpace=wrap;html=1;container=1;collapsible=0;recursiveResize=0;outlineConnect=0;labelBackgroundColor=none;strokeColor=#000000;strokeWidth=2;fillColor=#FFFFFF;gradientColor=none;fontSize=6;fontColor=#000000;" parent="4ehdOMiuZxZA9-4GaejZ-1" vertex="1">
                    <mxGeometry x="215" y="60" width="100" height="860" as="geometry"/>
                </mxCell>
                <mxCell id="4ehdOMiuZxZA9-4GaejZ-3" value="" style="html=1;points=[];perimeter=orthogonalPerimeter;" parent="4ehdOMiuZxZA9-4GaejZ-2" vertex="1">
                    <mxGeometry x="45" y="230" width="10" height="550" as="geometry"/>
                </mxCell>
                <mxCell id="4ehdOMiuZxZA9-4GaejZ-10" value="User" style="shape=umlActor;verticalLabelPosition=bottom;verticalAlign=top;html=1;labelBackgroundColor=none;strokeColor=#000000;strokeWidth=2;fillColor=#FFFFFF;gradientColor=none;fontSize=11;fontColor=#000000;" parent="4ehdOMiuZxZA9-4GaejZ-1" vertex="1">
                    <mxGeometry x="-30" y="50" width="30" height="60" as="geometry"/>
                </mxCell>
                <mxCell id="4ehdOMiuZxZA9-4GaejZ-11" value="" style="html=1;points=[];perimeter=orthogonalPerimeter;" parent="4ehdOMiuZxZA9-4GaejZ-1" vertex="1">
                    <mxGeometry x="-20" y="140" width="10" height="780" as="geometry"/>
                </mxCell>
                <mxCell id="4ehdOMiuZxZA9-4GaejZ-12" value="Demande supprimation article" style="html=1;verticalAlign=bottom;labelBackgroundColor=none;endArrow=block;endFill=1;endSize=6;align=left;strokeColor=#000000;fontSize=11;fontColor=#000000;" parent="4ehdOMiuZxZA9-4GaejZ-1" target="4ehdOMiuZxZA9-4GaejZ-2" edge="1">
                    <mxGeometry x="-0.562" relative="1" as="geometry">
                        <mxPoint x="-10" y="310" as="sourcePoint"/>
                        <mxPoint x="170" y="310" as="targetPoint"/>
                        <mxPoint as="offset"/>
                    </mxGeometry>
                </mxCell>
                <mxCell id="4ehdOMiuZxZA9-4GaejZ-14" value="&lt;font style=&quot;font-size: 12px&quot;&gt;BD&lt;/font&gt;" style="shape=umlLifeline;perimeter=lifelinePerimeter;whiteSpace=wrap;html=1;container=1;collapsible=0;recursiveResize=0;outlineConnect=0;labelBackgroundColor=none;strokeColor=#000000;strokeWidth=2;fillColor=#FFFFFF;gradientColor=none;fontSize=6;fontColor=#000000;" parent="4ehdOMiuZxZA9-4GaejZ-1" vertex="1">
                    <mxGeometry x="470" y="60" width="100" height="860" as="geometry"/>
                </mxCell>
                <mxCell id="4ehdOMiuZxZA9-4GaejZ-15" value="" style="html=1;points=[];perimeter=orthogonalPerimeter;" parent="4ehdOMiuZxZA9-4GaejZ-14" vertex="1">
                    <mxGeometry x="45" y="230" width="10" height="550" as="geometry"/>
                </mxCell>
                <mxCell id="4ehdOMiuZxZA9-4GaejZ-5" value="" style="html=1;points=[];perimeter=orthogonalPerimeter;strokeColor=#000000;strokeWidth=2;fillColor=none;fontColor=#000000;" parent="4ehdOMiuZxZA9-4GaejZ-14" vertex="1">
                    <mxGeometry x="45" y="292.5" width="10" height="25" as="geometry"/>
                </mxCell>
                <mxCell id="4ehdOMiuZxZA9-4GaejZ-6" value="Rechercher" style="edgeStyle=orthogonalEdgeStyle;html=1;align=left;spacingLeft=2;endArrow=block;rounded=0;entryX=1;entryY=0;fontColor=#000000;labelBackgroundColor=none;strokeColor=#000000;" parent="4ehdOMiuZxZA9-4GaejZ-14" target="4ehdOMiuZxZA9-4GaejZ-5" edge="1">
                    <mxGeometry relative="1" as="geometry">
                        <mxPoint x="55" y="280" as="sourcePoint"/>
                        <Array as="points">
                            <mxPoint x="75" y="280"/>
                            <mxPoint x="75" y="293"/>
                        </Array>
                    </mxGeometry>
                </mxCell>
                <mxCell id="4ehdOMiuZxZA9-4GaejZ-41" value="" style="html=1;points=[];perimeter=orthogonalPerimeter;strokeColor=#000000;strokeWidth=2;fillColor=none;fontColor=#000000;" parent="4ehdOMiuZxZA9-4GaejZ-14" vertex="1">
                    <mxGeometry x="45" y="562.5" width="10" height="25" as="geometry"/>
                </mxCell>
                <mxCell id="4ehdOMiuZxZA9-4GaejZ-42" value="Suppression" style="edgeStyle=orthogonalEdgeStyle;html=1;align=left;spacingLeft=2;endArrow=block;rounded=0;entryX=1;entryY=0;fontColor=#000000;labelBackgroundColor=none;strokeColor=#000000;" parent="4ehdOMiuZxZA9-4GaejZ-14" target="4ehdOMiuZxZA9-4GaejZ-41" edge="1">
                    <mxGeometry relative="1" as="geometry">
                        <mxPoint x="55" y="550" as="sourcePoint"/>
                        <Array as="points">
                            <mxPoint x="75" y="550"/>
                            <mxPoint x="75" y="563"/>
                        </Array>
                    </mxGeometry>
                </mxCell>
                <mxCell id="4ehdOMiuZxZA9-4GaejZ-18" value="" style="rounded=0;whiteSpace=wrap;html=1;strokeWidth=2;strokeColor=#000000;fillColor=#FFFFFF;" parent="4ehdOMiuZxZA9-4GaejZ-1" vertex="1">
                    <mxGeometry x="-75" y="177" width="670" height="50" as="geometry"/>
                </mxCell>
                <mxCell id="4ehdOMiuZxZA9-4GaejZ-19" value="&lt;font color=&quot;#0a0a0a&quot;&gt;Ref&lt;/font&gt;" style="text;html=1;align=center;verticalAlign=middle;resizable=0;points=[];autosize=1;strokeColor=#000000;" parent="4ehdOMiuZxZA9-4GaejZ-1" vertex="1">
                    <mxGeometry x="-64" y="184" width="30" height="20" as="geometry"/>
                </mxCell>
                <mxCell id="4ehdOMiuZxZA9-4GaejZ-20" value="AUTHENTIFICATION" style="text;html=1;align=center;verticalAlign=middle;resizable=0;points=[];autosize=1;fontColor=#000000;" parent="4ehdOMiuZxZA9-4GaejZ-1" vertex="1">
                    <mxGeometry x="185" y="192" width="130" height="20" as="geometry"/>
                </mxCell>
                <mxCell id="4ehdOMiuZxZA9-4GaejZ-21" value="Rechere la liste de gestion d'article" style="html=1;verticalAlign=bottom;labelBackgroundColor=none;endArrow=block;endFill=1;endSize=6;align=left;strokeColor=#000000;fontSize=11;fontColor=#000000;" parent="4ehdOMiuZxZA9-4GaejZ-1" edge="1">
                    <mxGeometry x="-0.7692" relative="1" as="geometry">
                        <mxPoint x="270" y="320" as="sourcePoint"/>
                        <mxPoint x="510" y="320" as="targetPoint"/>
                        <mxPoint as="offset"/>
                    </mxGeometry>
                </mxCell>
                <mxCell id="4ehdOMiuZxZA9-4GaejZ-30" value="" style="rounded=0;whiteSpace=wrap;html=1;fillColor=none;strokeWidth=2;strokeColor=#000000;" parent="4ehdOMiuZxZA9-4GaejZ-1" vertex="1">
                    <mxGeometry x="-120" y="560" width="750" height="200" as="geometry"/>
                </mxCell>
                <mxCell id="4ehdOMiuZxZA9-4GaejZ-33" value="&lt;font color=&quot;#0a0a0a&quot;&gt;ALT&lt;/font&gt;" style="text;html=1;align=center;verticalAlign=middle;resizable=0;points=[];autosize=1;strokeColor=#000000;" parent="4ehdOMiuZxZA9-4GaejZ-1" vertex="1">
                    <mxGeometry x="-104" y="580" width="40" height="20" as="geometry"/>
                </mxCell>
                <mxCell id="4ehdOMiuZxZA9-4GaejZ-34" value="" style="html=1;verticalAlign=bottom;labelBackgroundColor=none;endArrow=none;endFill=0;endSize=6;align=left;strokeColor=#000000;fontSize=11;fontColor=#000000;dashed=1;exitX=1;exitY=0.6;exitDx=0;exitDy=0;exitPerimeter=0;" parent="4ehdOMiuZxZA9-4GaejZ-1" source="4ehdOMiuZxZA9-4GaejZ-30" edge="1">
                    <mxGeometry x="0.3585" relative="1" as="geometry">
                        <mxPoint x="610" y="680" as="sourcePoint"/>
                        <mxPoint x="-110" y="680" as="targetPoint"/>
                        <mxPoint as="offset"/>
                    </mxGeometry>
                </mxCell>
                <mxCell id="4ehdOMiuZxZA9-4GaejZ-35" value="Chargement de la liste d'article" style="html=1;verticalAlign=bottom;labelBackgroundColor=none;endArrow=none;endFill=0;endSize=6;align=left;strokeColor=#000000;fontSize=11;fontColor=#000000;startArrow=classic;startFill=1;" parent="4ehdOMiuZxZA9-4GaejZ-1" edge="1">
                    <mxGeometry x="-0.7692" relative="1" as="geometry">
                        <mxPoint x="270" y="400" as="sourcePoint"/>
                        <mxPoint x="510" y="400" as="targetPoint"/>
                        <mxPoint as="offset"/>
                    </mxGeometry>
                </mxCell>
                <mxCell id="4ehdOMiuZxZA9-4GaejZ-36" value="Affiche la li ste d'article&amp;nbsp;" style="html=1;verticalAlign=bottom;labelBackgroundColor=none;endArrow=none;endFill=0;endSize=6;align=left;strokeColor=#000000;fontSize=11;fontColor=#000000;startArrow=classic;startFill=1;dashed=1;" parent="4ehdOMiuZxZA9-4GaejZ-1" edge="1">
                    <mxGeometry x="-0.3846" relative="1" as="geometry">
                        <mxPoint x="-10" y="430" as="sourcePoint"/>
                        <mxPoint x="250" y="430" as="targetPoint"/>
                        <mxPoint as="offset"/>
                    </mxGeometry>
                </mxCell>
                <mxCell id="4ehdOMiuZxZA9-4GaejZ-40" value="Valider avec oui&amp;nbsp;" style="html=1;verticalAlign=bottom;labelBackgroundColor=none;endArrow=block;endFill=1;endSize=6;align=left;strokeColor=#000000;fontSize=11;fontColor=#000000;" parent="4ehdOMiuZxZA9-4GaejZ-1" edge="1">
                    <mxGeometry x="-0.3431" relative="1" as="geometry">
                        <mxPoint x="-10" y="580" as="sourcePoint"/>
                        <mxPoint x="264" y="580" as="targetPoint"/>
                        <mxPoint as="offset"/>
                    </mxGeometry>
                </mxCell>
                <mxCell id="4ehdOMiuZxZA9-4GaejZ-43" value="Supprimer l'article" style="html=1;verticalAlign=bottom;labelBackgroundColor=none;endArrow=block;endFill=1;endSize=6;align=left;strokeColor=#000000;fontSize=11;fontColor=#000000;" parent="4ehdOMiuZxZA9-4GaejZ-1" edge="1">
                    <mxGeometry x="-0.3431" relative="1" as="geometry">
                        <mxPoint x="270" y="600" as="sourcePoint"/>
                        <mxPoint x="510" y="600" as="targetPoint"/>
                        <mxPoint as="offset"/>
                    </mxGeometry>
                </mxCell>
                <mxCell id="4ehdOMiuZxZA9-4GaejZ-44" value="Selection d'article pour supprimer" style="html=1;verticalAlign=bottom;labelBackgroundColor=none;endArrow=block;endFill=1;endSize=6;align=left;strokeColor=#000000;fontSize=11;fontColor=#000000;" parent="4ehdOMiuZxZA9-4GaejZ-1" edge="1">
                    <mxGeometry x="-0.562" relative="1" as="geometry">
                        <mxPoint x="-10" y="470" as="sourcePoint"/>
                        <mxPoint x="264" y="470" as="targetPoint"/>
                        <mxPoint as="offset"/>
                    </mxGeometry>
                </mxCell>
                <mxCell id="4ehdOMiuZxZA9-4GaejZ-45" value="Afficher un message de vÃ©rification" style="html=1;verticalAlign=bottom;labelBackgroundColor=none;endArrow=none;endFill=0;endSize=6;align=left;strokeColor=#000000;fontSize=11;fontColor=#000000;startArrow=classic;startFill=1;dashed=1;" parent="4ehdOMiuZxZA9-4GaejZ-1" edge="1">
                    <mxGeometry x="-0.6923" relative="1" as="geometry">
                        <mxPoint x="-10" y="503" as="sourcePoint"/>
                        <mxPoint x="250" y="503" as="targetPoint"/>
                        <mxPoint as="offset"/>
                    </mxGeometry>
                </mxCell>
                <mxCell id="4ehdOMiuZxZA9-4GaejZ-46" value="Valider avec Non" style="html=1;verticalAlign=bottom;labelBackgroundColor=none;endArrow=block;endFill=1;endSize=6;align=left;strokeColor=#000000;fontSize=11;fontColor=#000000;" parent="4ehdOMiuZxZA9-4GaejZ-1" edge="1">
                    <mxGeometry x="-0.3431" relative="1" as="geometry">
                        <mxPoint x="-10" y="728.75" as="sourcePoint"/>
                        <mxPoint x="264" y="728.75" as="targetPoint"/>
                        <mxPoint as="offset"/>
                    </mxGeometry>
                </mxCell>
                <mxCell id="4ehdOMiuZxZA9-4GaejZ-47" value="Afficher un message de succÃ©es" style="html=1;verticalAlign=bottom;labelBackgroundColor=none;endArrow=none;endFill=0;endSize=6;align=left;strokeColor=#000000;fontSize=11;fontColor=#000000;startArrow=classic;startFill=1;dashed=1;" parent="4ehdOMiuZxZA9-4GaejZ-1" edge="1">
                    <mxGeometry x="-0.6923" relative="1" as="geometry">
                        <mxPoint x="-10" y="648.75" as="sourcePoint"/>
                        <mxPoint x="250" y="648.75" as="targetPoint"/>
                        <mxPoint as="offset"/>
                    </mxGeometry>
                </mxCell>
            </root>
        </mxGraphModel>
    </diagram>
    <diagram id="lE_5krqfZit4KvwnpkZy" name="2_(diagramme de sÃ©quence) Recherche l'article ---bref4">
        &#xa;        &#xa;&#xa;
        <mxGraphModel dx="1204" dy="790" grid="1" gridSize="10" guides="1" tooltips="1" connect="1" arrows="1" fold="1" page="0" pageScale="1" pageWidth="827" pageHeight="1169" background="#ffffff" math="0" shadow="0">
            &#xa;            &#xa;&#xa;
            <root>
                &#xa;                &#xa;&#xa;
                <mxCell id="568kkaL5elJyI3yL1e6K-0"/>
                &#xa;                &#xa;&#xa;
                <mxCell id="568kkaL5elJyI3yL1e6K-1" parent="568kkaL5elJyI3yL1e6K-0"/>
                &#xa;                &#xa;&#xa;
                <mxCell id="cpPnAiQ-PsTCjhXhwh5w-0" value="&lt;font style=&quot;font-size: 11px&quot;&gt;APPLICATION&lt;/font&gt;" style="shape=umlLifeline;perimeter=lifelinePerimeter;whiteSpace=wrap;html=1;container=1;collapsible=0;recursiveResize=0;outlineConnect=0;labelBackgroundColor=none;strokeColor=#000000;strokeWidth=2;fillColor=#FFFFFF;gradientColor=none;fontSize=6;fontColor=#000000;" parent="568kkaL5elJyI3yL1e6K-1" vertex="1">
                    &#xa;                    &#xa;&#xa;
                    <mxGeometry x="315" y="50" width="100" height="470" as="geometry"/>
                    &#xa;                    &#xa;&#xa;
                </mxCell>
                &#xa;                &#xa;&#xa;
                <mxCell id="cpPnAiQ-PsTCjhXhwh5w-1" value="" style="html=1;points=[];perimeter=orthogonalPerimeter;" parent="cpPnAiQ-PsTCjhXhwh5w-0" vertex="1">
                    &#xa;                    &#xa;&#xa;
                    <mxGeometry x="45" y="230" width="10" height="200" as="geometry"/>
                    &#xa;                    &#xa;&#xa;
                </mxCell>
                &#xa;                &#xa;&#xa;
                <mxCell id="cpPnAiQ-PsTCjhXhwh5w-8" value="User" style="shape=umlActor;verticalLabelPosition=bottom;verticalAlign=top;html=1;labelBackgroundColor=none;strokeColor=#000000;strokeWidth=2;fillColor=#FFFFFF;gradientColor=none;fontSize=11;fontColor=#000000;" parent="568kkaL5elJyI3yL1e6K-1" vertex="1">
                    &#xa;                    &#xa;&#xa;
                    <mxGeometry x="70" y="40" width="30" height="60" as="geometry"/>
                    &#xa;                    &#xa;&#xa;
                </mxCell>
                &#xa;                &#xa;&#xa;
                <mxCell id="cpPnAiQ-PsTCjhXhwh5w-9" value="" style="html=1;points=[];perimeter=orthogonalPerimeter;" parent="568kkaL5elJyI3yL1e6K-1" vertex="1">
                    &#xa;                    &#xa;&#xa;
                    <mxGeometry x="80" y="130" width="10" height="390" as="geometry"/>
                    &#xa;                    &#xa;&#xa;
                </mxCell>
                &#xa;                &#xa;&#xa;
                <mxCell id="cpPnAiQ-PsTCjhXhwh5w-10" value="Demande recherche l'article" style="html=1;verticalAlign=bottom;labelBackgroundColor=none;endArrow=block;endFill=1;endSize=6;align=left;strokeColor=#000000;fontSize=11;fontColor=#000000;" parent="568kkaL5elJyI3yL1e6K-1" target="cpPnAiQ-PsTCjhXhwh5w-0" edge="1">
                    &#xa;                    &#xa;&#xa;
                    <mxGeometry x="-0.562" relative="1" as="geometry">
                        &#xa;                        &#xa;&#xa;
                        <mxPoint x="90" y="300" as="sourcePoint"/>
                        &#xa;                        &#xa;&#xa;
                        <mxPoint x="270" y="300" as="targetPoint"/>
                        &#xa;                        &#xa;&#xa;
                        <mxPoint as="offset"/>
                        &#xa;                        &#xa;&#xa;
                    </mxGeometry>
                    &#xa;                    &#xa;&#xa;
                </mxCell>
                &#xa;                &#xa;&#xa;
                <mxCell id="cpPnAiQ-PsTCjhXhwh5w-11" value="Afficher&amp;nbsp; la liste d'article" style="html=1;verticalAlign=bottom;labelBackgroundColor=none;endArrow=block;endFill=1;endSize=6;align=left;strokeColor=#000000;fontSize=11;fontColor=#000000;dashed=1;" parent="568kkaL5elJyI3yL1e6K-1" edge="1">
                    &#xa;                    &#xa;&#xa;
                    <mxGeometry x="0.5472" relative="1" as="geometry">
                        &#xa;                        &#xa;&#xa;
                        <mxPoint x="355" y="460" as="sourcePoint"/>
                        &#xa;                        &#xa;&#xa;
                        <mxPoint x="89.99999999999977" y="460.4100000000001" as="targetPoint"/>
                        &#xa;                        &#xa;&#xa;
                        <mxPoint x="1" as="offset"/>
                        &#xa;                        &#xa;&#xa;
                    </mxGeometry>
                    &#xa;                    &#xa;&#xa;
                </mxCell>
                &#xa;                &#xa;&#xa;
                <mxCell id="cpPnAiQ-PsTCjhXhwh5w-12" value="&lt;font style=&quot;font-size: 12px&quot;&gt;BD&lt;/font&gt;" style="shape=umlLifeline;perimeter=lifelinePerimeter;whiteSpace=wrap;html=1;container=1;collapsible=0;recursiveResize=0;outlineConnect=0;labelBackgroundColor=none;strokeColor=#000000;strokeWidth=2;fillColor=#FFFFFF;gradientColor=none;fontSize=6;fontColor=#000000;" parent="568kkaL5elJyI3yL1e6K-1" vertex="1">
                    &#xa;                    &#xa;&#xa;
                    <mxGeometry x="570" y="50" width="100" height="470" as="geometry"/>
                    &#xa;                    &#xa;&#xa;
                </mxCell>
                &#xa;                &#xa;&#xa;
                <mxCell id="cpPnAiQ-PsTCjhXhwh5w-13" value="" style="html=1;points=[];perimeter=orthogonalPerimeter;" parent="cpPnAiQ-PsTCjhXhwh5w-12" vertex="1">
                    &#xa;                    &#xa;&#xa;
                    <mxGeometry x="45" y="230" width="10" height="105" as="geometry"/>
                    &#xa;                    &#xa;&#xa;
                </mxCell>
                &#xa;                &#xa;&#xa;
                <mxCell id="mAedtZt8eJVGYg36o4WN-0" value="Recherche" style="edgeStyle=orthogonalEdgeStyle;html=1;align=left;spacingLeft=2;endArrow=block;rounded=0;entryX=1;entryY=0;fontColor=#000000;labelBackgroundColor=none;strokeColor=#000000;" parent="cpPnAiQ-PsTCjhXhwh5w-12" edge="1">
                    &#xa;                    &#xa;&#xa;
                    <mxGeometry relative="1" as="geometry">
                        &#xa;                        &#xa;&#xa;
                        <mxPoint x="55" y="280" as="sourcePoint"/>
                        &#xa;                        &#xa;&#xa;
                        <Array as="points">
                            &#xa;                            &#xa;&#xa;
                            <mxPoint x="75" y="280"/>
                            &#xa;                            &#xa;&#xa;
                            <mxPoint x="75" y="293"/>
                            &#xa;                            &#xa;&#xa;
                        </Array>
                        &#xa;                        &#xa;&#xa;
                        <mxPoint x="55" y="292.5" as="targetPoint"/>
                        &#xa;                        &#xa;&#xa;
                    </mxGeometry>
                    &#xa;                    &#xa;&#xa;
                </mxCell>
                &#xa;                &#xa;&#xa;
                <mxCell id="cpPnAiQ-PsTCjhXhwh5w-16" value="" style="rounded=0;whiteSpace=wrap;html=1;strokeWidth=2;strokeColor=#000000;fillColor=#FFFFFF;" parent="568kkaL5elJyI3yL1e6K-1" vertex="1">
                    &#xa;                    &#xa;&#xa;
                    <mxGeometry x="25" y="167" width="670" height="50" as="geometry"/>
                    &#xa;                    &#xa;&#xa;
                </mxCell>
                &#xa;                &#xa;&#xa;
                <mxCell id="cpPnAiQ-PsTCjhXhwh5w-17" value="&lt;font color=&quot;#0a0a0a&quot;&gt;Ref&lt;/font&gt;" style="text;html=1;align=center;verticalAlign=middle;resizable=0;points=[];autosize=1;strokeColor=#000000;" parent="568kkaL5elJyI3yL1e6K-1" vertex="1">
                    &#xa;                    &#xa;&#xa;
                    <mxGeometry x="36" y="174" width="30" height="20" as="geometry"/>
                    &#xa;                    &#xa;&#xa;
                </mxCell>
                &#xa;                &#xa;&#xa;
                <mxCell id="cpPnAiQ-PsTCjhXhwh5w-18" value="AUTHENTIFICATION" style="text;html=1;align=center;verticalAlign=middle;resizable=0;points=[];autosize=1;fontColor=#000000;" parent="568kkaL5elJyI3yL1e6K-1" vertex="1">
                    &#xa;                    &#xa;&#xa;
                    <mxGeometry x="285" y="182" width="130" height="20" as="geometry"/>
                    &#xa;                    &#xa;&#xa;
                </mxCell>
                &#xa;                &#xa;&#xa;
                <mxCell id="cpPnAiQ-PsTCjhXhwh5w-33" value="Recherche la liste d'article&amp;nbsp;" style="html=1;verticalAlign=bottom;labelBackgroundColor=none;endArrow=block;endFill=1;endSize=6;align=left;strokeColor=#000000;fontSize=11;fontColor=#000000;" parent="568kkaL5elJyI3yL1e6K-1" edge="1">
                    &#xa;                    &#xa;&#xa;
                    <mxGeometry x="-0.562" relative="1" as="geometry">
                        &#xa;                        &#xa;&#xa;
                        <mxPoint x="370" y="320" as="sourcePoint"/>
                        &#xa;                        &#xa;&#xa;
                        <mxPoint x="614" y="320" as="targetPoint"/>
                        &#xa;                        &#xa;&#xa;
                        <mxPoint as="offset"/>
                        &#xa;                        &#xa;&#xa;
                    </mxGeometry>
                    &#xa;                    &#xa;&#xa;
                </mxCell>
                &#xa;                &#xa;&#xa;
                <mxCell id="cpPnAiQ-PsTCjhXhwh5w-34" value="chargement la liste d'article&amp;nbsp;" style="html=1;verticalAlign=bottom;labelBackgroundColor=none;endArrow=none;endFill=0;endSize=6;align=left;strokeColor=#000000;fontSize=11;fontColor=#000000;startArrow=classic;startFill=1;" parent="568kkaL5elJyI3yL1e6K-1" edge="1">
                    &#xa;                    &#xa;&#xa;
                    <mxGeometry x="-0.562" relative="1" as="geometry">
                        &#xa;                        &#xa;&#xa;
                        <mxPoint x="380" y="380" as="sourcePoint"/>
                        &#xa;                        &#xa;&#xa;
                        <mxPoint x="614" y="380" as="targetPoint"/>
                        &#xa;                        &#xa;&#xa;
                        <mxPoint as="offset"/>
                        &#xa;                        &#xa;&#xa;
                    </mxGeometry>
                    &#xa;                    &#xa;&#xa;
                </mxCell>
                &#xa;                &#xa;&#xa;
            </root>
            &#xa;            &#xa;&#xa;
        </mxGraphModel>
        &#xa;        &#xa;&#xa;
    </diagram>
    <diagram id="GXPSRCyjwTL5R1KUz7fG" name="3_(Diagramme de classe)  ---bref4">
        &#xa;        &#xa;&#xa;
        <mxGraphModel dx="1604" dy="790" grid="1" gridSize="10" guides="1" tooltips="1" connect="1" arrows="1" fold="1" page="0" pageScale="1" pageWidth="827" pageHeight="1169" background="#ffffff" math="0" shadow="0">
            &#xa;            &#xa;&#xa;
            <root>
                &#xa;                &#xa;&#xa;
                <mxCell id="ulFgm6q3aAdHTbNL70DE-0"/>
                &#xa;                &#xa;&#xa;
                <mxCell id="ulFgm6q3aAdHTbNL70DE-1" parent="ulFgm6q3aAdHTbNL70DE-0"/>
                &#xa;                &#xa;&#xa;
                <mxCell id="ulFgm6q3aAdHTbNL70DE-2" value="&lt;font color=&quot;#ffffff&quot;&gt;Product&lt;/font&gt;" style="html=1;overflow=block;blockSpacing=1;whiteSpace=wrap;swimlane;childLayout=stackLayout;horizontal=1;horizontalStack=0;resizeParent=1;resizeParentMax=0;resizeLast=0;collapsible=0;fontStyle=0;marginBottom=0;swimlaneFillColor=#ffffff;startSize=25;whiteSpace=wrap;fontSize=13;fontColor=#333333;whiteSpace=wrap;align=center;spacing=0;strokeOpacity=100;strokeWidth=2;labelBackgroundColor=none;" parent="ulFgm6q3aAdHTbNL70DE-1" vertex="1">
                    &#xa;                    &#xa;&#xa;
                    <mxGeometry x="490" y="190" width="243" height="265.64" as="geometry"/>
                    &#xa;                    &#xa;&#xa;
                </mxCell>
                &#xa;                &#xa;&#xa;
                <mxCell id="ulFgm6q3aAdHTbNL70DE-3" value="-id: int&#10;-serialNum: string&#10;-productName: string&#10;-category: string&#10;-price: float&#10;-quantity: float&#10;{-destination: string}/optinal" style="part=1;html=1;resizeHeight=0;strokeColor=none;fillColor=none;align=left;verticalAlign=middle;spacingLeft=4;spacingRight=4;overflow=hidden;rotatable=0;points=[[0,0.5],[1,0.5]];portConstraint=eastwest;swimlaneFillColor=#ffffff;strokeOpacity=100;fontSize=13;fontColor=#333333;" parent="ulFgm6q3aAdHTbNL70DE-2" vertex="1">
                    &#xa;                    &#xa;&#xa;
                    <mxGeometry y="25" width="243" height="125" as="geometry"/>
                    &#xa;                    &#xa;&#xa;
                </mxCell>
                &#xa;                &#xa;&#xa;
                <mxCell id="ulFgm6q3aAdHTbNL70DE-4" value="" style="line;strokeWidth=1;fillColor=none;align=left;verticalAlign=middle;spacingTop=-1;spacingLeft=3;spacingRight=3;rotatable=0;labelPosition=right;points=[];portConstraint=eastwest;" parent="ulFgm6q3aAdHTbNL70DE-2" vertex="1">
                    &#xa;                    &#xa;&#xa;
                    <mxGeometry y="150" width="243" height="8" as="geometry"/>
                    &#xa;                    &#xa;&#xa;
                </mxCell>
                &#xa;                &#xa;&#xa;
                <mxCell id="ulFgm6q3aAdHTbNL70DE-5" value="-addProducts()&#10;-viewProducts()&#10;-updateProducts()&#10;-deleteProducts()" style="part=1;html=1;resizeHeight=0;strokeColor=none;fillColor=none;align=left;verticalAlign=middle;spacingLeft=4;spacingRight=4;overflow=hidden;rotatable=0;points=[[0,0.5],[1,0.5]];portConstraint=eastwest;swimlaneFillColor=#ffffff;strokeOpacity=100;fontSize=13;fontColor=#333333;" parent="ulFgm6q3aAdHTbNL70DE-2" vertex="1">
                    &#xa;                    &#xa;&#xa;
                    <mxGeometry y="158" width="243" height="107.64" as="geometry"/>
                    &#xa;                    &#xa;&#xa;
                </mxCell>
                &#xa;                &#xa;&#xa;
                <mxCell id="ulFgm6q3aAdHTbNL70DE-6" value="&lt;font color=&quot;#ffffff&quot;&gt;User&lt;/font&gt;" style="html=1;overflow=block;blockSpacing=1;whiteSpace=wrap;swimlane;childLayout=stackLayout;horizontal=1;horizontalStack=0;resizeParent=1;resizeParentMax=0;resizeLast=0;collapsible=0;fontStyle=0;marginBottom=0;swimlaneFillColor=#ffffff;startSize=25;whiteSpace=wrap;fontSize=13;fontColor=#333333;whiteSpace=wrap;align=center;spacing=0;strokeOpacity=100;strokeWidth=2;" parent="ulFgm6q3aAdHTbNL70DE-1" vertex="1">
                    &#xa;                    &#xa;&#xa;
                    <mxGeometry x="-50" y="180" width="243" height="344.63965901936217" as="geometry"/>
                    &#xa;                    &#xa;&#xa;
                </mxCell>
                &#xa;                &#xa;&#xa;
                <mxCell id="ulFgm6q3aAdHTbNL70DE-7" value="-id: int&lt;br&gt;-nom: string&lt;br&gt;-Prenom: string&lt;br&gt;-cin: string&lt;br&gt;-password: string" style="part=1;html=1;resizeHeight=0;strokeColor=none;fillColor=none;align=left;verticalAlign=middle;spacingLeft=4;spacingRight=4;overflow=hidden;rotatable=0;points=[[0,0.5],[1,0.5]];portConstraint=eastwest;swimlaneFillColor=#ffffff;strokeOpacity=100;fontSize=13;fontColor=#333333;" parent="ulFgm6q3aAdHTbNL70DE-6" vertex="1">
                    &#xa;                    &#xa;&#xa;
                    <mxGeometry y="25" width="243" height="115" as="geometry"/>
                    &#xa;                    &#xa;&#xa;
                </mxCell>
                &#xa;                &#xa;&#xa;
                <mxCell id="ulFgm6q3aAdHTbNL70DE-8" value="" style="line;strokeWidth=1;fillColor=none;align=left;verticalAlign=middle;spacingTop=-1;spacingLeft=3;spacingRight=3;rotatable=0;labelPosition=right;points=[];portConstraint=eastwest;" parent="ulFgm6q3aAdHTbNL70DE-6" vertex="1">
                    &#xa;                    &#xa;&#xa;
                    <mxGeometry y="140" width="243" height="8" as="geometry"/>
                    &#xa;                    &#xa;&#xa;
                </mxCell>
                &#xa;                &#xa;&#xa;
                <mxCell id="ulFgm6q3aAdHTbNL70DE-9" value="-register()&#10;-login()&#10;-orderSupplies()&#10;-addProductsListing()&#10;-viewProductsListing()&#10;-updateProductsListing()&#10;-deleteProductsListing()" style="part=1;html=1;resizeHeight=0;strokeColor=none;fillColor=none;align=left;verticalAlign=middle;spacingLeft=4;spacingRight=4;overflow=hidden;rotatable=0;points=[[0,0.5],[1,0.5]];portConstraint=eastwest;swimlaneFillColor=#ffffff;strokeOpacity=100;fontSize=13;fontColor=#333333;" parent="ulFgm6q3aAdHTbNL70DE-6" vertex="1">
                    &#xa;                    &#xa;&#xa;
                    <mxGeometry y="148" width="243" height="196.63965901936214" as="geometry"/>
                    &#xa;                    &#xa;&#xa;
                </mxCell>
                &#xa;                &#xa;&#xa;
                <mxCell id="ulFgm6q3aAdHTbNL70DE-10" value="" style="endArrow=none;html=1;labelBackgroundColor=none;strokeColor=#000000;fontColor=#000000;entryX=-0.008;entryY=-0.015;entryDx=0;entryDy=0;entryPerimeter=0;exitX=1;exitY=0.096;exitDx=0;exitDy=0;exitPerimeter=0;" parent="ulFgm6q3aAdHTbNL70DE-1" source="ulFgm6q3aAdHTbNL70DE-9" target="ulFgm6q3aAdHTbNL70DE-5" edge="1">
                    &#xa;                    &#xa;&#xa;
                    <mxGeometry width="50" height="50" relative="1" as="geometry">
                        &#xa;                        &#xa;&#xa;
                        <mxPoint x="170" y="360" as="sourcePoint"/>
                        &#xa;                        &#xa;&#xa;
                        <mxPoint x="220" y="310" as="targetPoint"/>
                        &#xa;                        &#xa;&#xa;
                    </mxGeometry>
                    &#xa;                    &#xa;&#xa;
                </mxCell>
                &#xa;                &#xa;&#xa;
                <mxCell id="ulFgm6q3aAdHTbNL70DE-11" value="1 .. *" style="text;html=1;align=center;verticalAlign=middle;resizable=0;points=[];autosize=1;fontColor=#000000;" parent="ulFgm6q3aAdHTbNL70DE-1" vertex="1">
                    &#xa;                    &#xa;&#xa;
                    <mxGeometry x="200" y="320" width="40" height="20" as="geometry"/>
                    &#xa;                    &#xa;&#xa;
                </mxCell>
                &#xa;                &#xa;&#xa;
                <mxCell id="ulFgm6q3aAdHTbNL70DE-12" value="1 .. *" style="text;html=1;align=center;verticalAlign=middle;resizable=0;points=[];autosize=1;fontColor=#000000;" parent="ulFgm6q3aAdHTbNL70DE-1" vertex="1">
                    &#xa;                    &#xa;&#xa;
                    <mxGeometry x="440" y="320" width="40" height="20" as="geometry"/>
                    &#xa;                    &#xa;&#xa;
                </mxCell>
                &#xa;                &#xa;&#xa;
            </root>
            &#xa;            &#xa;&#xa;
        </mxGraphModel>
        &#xa;        &#xa;&#xa;
    </diagram>
    <diagram id="8ZDfQ3wKos1x94SfQqRf" name="4_(Diagramme d'activitÃ©) ---bref 4">
        &#xa;
        <mxGraphModel dx="1774" dy="790" grid="1" gridSize="10" guides="1" tooltips="1" connect="1" arrows="1" fold="1" page="0" pageScale="1" pageWidth="827" pageHeight="1169" background="#ffffff" math="0" shadow="0">
            &#xa;
            <root>
                &#xa;
                <mxCell id="cH-N6wzS0bkdWcANCXyc-0"/>
                &#xa;
                <mxCell id="cH-N6wzS0bkdWcANCXyc-1" parent="cH-N6wzS0bkdWcANCXyc-0"/>
                &#xa;
                <mxCell id="Ta5CLN8-l0O8IYf5EfC2-1" value="" style="ellipse;fillColor=#000000;strokeColor=none;labelBackgroundColor=none;fontColor=#000000;align=center;" parent="cH-N6wzS0bkdWcANCXyc-1" vertex="1">
                    &#xa;
                    <mxGeometry x="225" y="20" width="30" height="30" as="geometry"/>
                    &#xa;
                </mxCell>
                &#xa;
                <mxCell id="Ta5CLN8-l0O8IYf5EfC2-3" value="" style="endArrow=none;html=1;labelBackgroundColor=none;strokeColor=#000000;fontColor=#000000;entryX=0.5;entryY=1;entryDx=0;entryDy=0;" parent="cH-N6wzS0bkdWcANCXyc-1" target="Ta5CLN8-l0O8IYf5EfC2-1" edge="1">
                    &#xa;
                    <mxGeometry width="50" height="50" relative="1" as="geometry">
                        &#xa;
                        <mxPoint x="240" y="80" as="sourcePoint"/>
                        &#xa;
                        <mxPoint x="260" y="160" as="targetPoint"/>
                        &#xa;
                    </mxGeometry>
                    &#xa;
                </mxCell>
                &#xa;
                <mxCell id="Ta5CLN8-l0O8IYf5EfC2-4" value="" style="rounded=0;whiteSpace=wrap;html=1;labelBackgroundColor=none;strokeWidth=1;fillColor=none;fontColor=#000000;align=center;strokeColor=#000000;" parent="cH-N6wzS0bkdWcANCXyc-1" vertex="1">
                    &#xa;
                    <mxGeometry x="190" y="80" width="100" height="30" as="geometry"/>
                    &#xa;
                </mxCell>
                &#xa;
                <mxCell id="Ta5CLN8-l0O8IYf5EfC2-5" value="Authentification" style="text;html=1;align=center;verticalAlign=middle;resizable=0;points=[];autosize=1;fontColor=#000000;" parent="cH-N6wzS0bkdWcANCXyc-1" vertex="1">
                    &#xa;
                    <mxGeometry x="190" y="85" width="100" height="20" as="geometry"/>
                    &#xa;
                </mxCell>
                &#xa;
                <mxCell id="Ta5CLN8-l0O8IYf5EfC2-6" value="" style="endArrow=none;html=1;labelBackgroundColor=none;strokeColor=#000000;fontColor=#000000;exitX=0;exitY=0.5;exitDx=0;exitDy=0;entryX=0;entryY=0.5;entryDx=0;entryDy=0;" parent="cH-N6wzS0bkdWcANCXyc-1" source="Ta5CLN8-l0O8IYf5EfC2-32" target="Ta5CLN8-l0O8IYf5EfC2-26" edge="1">
                    &#xa;
                    <mxGeometry width="50" height="50" relative="1" as="geometry">
                        &#xa;
                        <mxPoint x="-120" y="630" as="sourcePoint"/>
                        &#xa;
                        <mxPoint x="-250" y="460" as="targetPoint"/>
                        &#xa;
                        <Array as="points">
                            &#xa;
                            <mxPoint x="-160" y="630"/>
                            &#xa;
                            <mxPoint x="-160" y="470"/>
                            &#xa;
                        </Array>
                        &#xa;
                    </mxGeometry>
                    &#xa;
                </mxCell>
                &#xa;
                <mxCell id="Ta5CLN8-l0O8IYf5EfC2-7" value="" style="endArrow=none;html=1;labelBackgroundColor=none;strokeColor=#000000;fontColor=#000000;exitX=0.5;exitY=1;exitDx=0;exitDy=0;" parent="cH-N6wzS0bkdWcANCXyc-1" source="Ta5CLN8-l0O8IYf5EfC2-4" target="Ta5CLN8-l0O8IYf5EfC2-8" edge="1">
                    &#xa;
                    <mxGeometry width="50" height="50" relative="1" as="geometry">
                        &#xa;
                        <mxPoint x="240" y="120" as="sourcePoint"/>
                        &#xa;
                        <mxPoint x="240" y="150" as="targetPoint"/>
                        &#xa;
                    </mxGeometry>
                    &#xa;
                </mxCell>
                &#xa;
                <mxCell id="Ta5CLN8-l0O8IYf5EfC2-8" value="" style="rhombus;whiteSpace=wrap;html=1;labelBackgroundColor=none;strokeColor=#000000;strokeWidth=1;fillColor=none;fontColor=#000000;align=center;" parent="cH-N6wzS0bkdWcANCXyc-1" vertex="1">
                    &#xa;
                    <mxGeometry x="200" y="150" width="80" height="80" as="geometry"/>
                    &#xa;
                </mxCell>
                &#xa;
                <mxCell id="Ta5CLN8-l0O8IYf5EfC2-9" value="DÃ©cision" style="text;html=1;align=center;verticalAlign=middle;resizable=0;points=[];autosize=1;fontColor=#000000;" parent="cH-N6wzS0bkdWcANCXyc-1" vertex="1">
                    &#xa;
                    <mxGeometry x="210" y="180" width="60" height="20" as="geometry"/>
                    &#xa;
                </mxCell>
                &#xa;
                <mxCell id="Ta5CLN8-l0O8IYf5EfC2-10" value="" style="endArrow=none;html=1;labelBackgroundColor=none;strokeColor=#000000;fontColor=#000000;entryX=0;entryY=0.5;entryDx=0;entryDy=0;exitX=0;exitY=0.25;exitDx=0;exitDy=0;exitPerimeter=0;" parent="cH-N6wzS0bkdWcANCXyc-1" source="Ta5CLN8-l0O8IYf5EfC2-5" target="Ta5CLN8-l0O8IYf5EfC2-8" edge="1">
                    &#xa;
                    <mxGeometry width="50" height="50" relative="1" as="geometry">
                        &#xa;
                        <mxPoint x="120" y="40" as="sourcePoint"/>
                        &#xa;
                        <mxPoint x="120" y="280" as="targetPoint"/>
                        &#xa;
                        <Array as="points">
                            &#xa;
                            <mxPoint x="120" y="90"/>
                            &#xa;
                            <mxPoint x="120" y="190"/>
                            &#xa;
                        </Array>
                        &#xa;
                    </mxGeometry>
                    &#xa;
                </mxCell>
                &#xa;
                <mxCell id="Ta5CLN8-l0O8IYf5EfC2-11" value="Tu n'est pas un user" style="text;html=1;align=center;verticalAlign=middle;resizable=0;points=[];autosize=1;fontColor=#000000;fontSize=7;" parent="cH-N6wzS0bkdWcANCXyc-1" vertex="1">
                    &#xa;
                    <mxGeometry x="121" y="177" width="80" height="10" as="geometry"/>
                    &#xa;
                </mxCell>
                &#xa;
                <mxCell id="Ta5CLN8-l0O8IYf5EfC2-13" value="" style="endArrow=none;html=1;labelBackgroundColor=none;strokeColor=#000000;fontColor=#000000;exitX=1;exitY=0.5;exitDx=0;exitDy=0;" parent="cH-N6wzS0bkdWcANCXyc-1" source="Ta5CLN8-l0O8IYf5EfC2-8" edge="1">
                    &#xa;
                    <mxGeometry width="50" height="50" relative="1" as="geometry">
                        &#xa;
                        <mxPoint x="350" y="150" as="sourcePoint"/>
                        &#xa;
                        <mxPoint x="360" y="230" as="targetPoint"/>
                        &#xa;
                        <Array as="points">
                            &#xa;
                            <mxPoint x="360" y="190"/>
                            &#xa;
                        </Array>
                        &#xa;
                    </mxGeometry>
                    &#xa;
                </mxCell>
                &#xa;
                <mxCell id="Ta5CLN8-l0O8IYf5EfC2-16" value="" style="rounded=0;whiteSpace=wrap;html=1;labelBackgroundColor=none;strokeWidth=1;fillColor=none;fontColor=#000000;align=center;strokeColor=#000000;" parent="cH-N6wzS0bkdWcANCXyc-1" vertex="1">
                    &#xa;
                    <mxGeometry x="310" y="230" width="100" height="30" as="geometry"/>
                    &#xa;
                </mxCell>
                &#xa;
                <mxCell id="Ta5CLN8-l0O8IYf5EfC2-17" value="Menu" style="text;html=1;align=center;verticalAlign=middle;resizable=0;points=[];autosize=1;fontColor=#000000;" parent="cH-N6wzS0bkdWcANCXyc-1" vertex="1">
                    &#xa;
                    <mxGeometry x="335" y="235" width="50" height="20" as="geometry"/>
                    &#xa;
                </mxCell>
                &#xa;
                <mxCell id="Ta5CLN8-l0O8IYf5EfC2-18" value="" style="endArrow=none;html=1;labelBackgroundColor=none;strokeColor=#000000;fontColor=#000000;" parent="cH-N6wzS0bkdWcANCXyc-1" edge="1">
                    &#xa;
                    <mxGeometry width="50" height="50" relative="1" as="geometry">
                        &#xa;
                        <mxPoint x="360" y="261" as="sourcePoint"/>
                        &#xa;
                        <mxPoint x="360" y="290" as="targetPoint"/>
                        &#xa;
                    </mxGeometry>
                    &#xa;
                </mxCell>
                &#xa;
                <mxCell id="Ta5CLN8-l0O8IYf5EfC2-19" value="" style="rounded=0;whiteSpace=wrap;html=1;labelBackgroundColor=none;strokeWidth=1;fillColor=none;fontColor=#000000;align=center;strokeColor=#000000;" parent="cH-N6wzS0bkdWcANCXyc-1" vertex="1">
                    &#xa;
                    <mxGeometry x="310" y="290" width="100" height="30" as="geometry"/>
                    &#xa;
                </mxCell>
                &#xa;
                <mxCell id="Ta5CLN8-l0O8IYf5EfC2-20" value="Article" style="text;html=1;align=center;verticalAlign=middle;resizable=0;points=[];autosize=1;fontColor=#000000;" parent="cH-N6wzS0bkdWcANCXyc-1" vertex="1">
                    &#xa;
                    <mxGeometry x="335" y="295" width="50" height="20" as="geometry"/>
                    &#xa;
                </mxCell>
                &#xa;
                <mxCell id="Ta5CLN8-l0O8IYf5EfC2-21" value="" style="endArrow=none;html=1;labelBackgroundColor=none;strokeColor=#000000;fontColor=#000000;" parent="cH-N6wzS0bkdWcANCXyc-1" edge="1">
                    &#xa;
                    <mxGeometry width="50" height="50" relative="1" as="geometry">
                        &#xa;
                        <mxPoint x="360" y="360" as="sourcePoint"/>
                        &#xa;
                        <mxPoint x="-40" y="400" as="targetPoint"/>
                        &#xa;
                        <Array as="points">
                            &#xa;
                            <mxPoint x="-40" y="360"/>
                            &#xa;
                        </Array>
                        &#xa;
                    </mxGeometry>
                    &#xa;
                </mxCell>
                &#xa;
                <mxCell id="Ta5CLN8-l0O8IYf5EfC2-22" value="" style="endArrow=none;html=1;labelBackgroundColor=none;strokeColor=#000000;fontColor=#000000;exitX=0.5;exitY=1;exitDx=0;exitDy=0;" parent="cH-N6wzS0bkdWcANCXyc-1" source="Ta5CLN8-l0O8IYf5EfC2-19" edge="1">
                    &#xa;
                    <mxGeometry width="50" height="50" relative="1" as="geometry">
                        &#xa;
                        <mxPoint x="385" y="320" as="sourcePoint"/>
                        &#xa;
                        <mxPoint x="360" y="360" as="targetPoint"/>
                        &#xa;
                    </mxGeometry>
                    &#xa;
                </mxCell>
                &#xa;
                <mxCell id="Ta5CLN8-l0O8IYf5EfC2-23" value="" style="rounded=0;whiteSpace=wrap;html=1;labelBackgroundColor=none;strokeWidth=1;fillColor=none;fontColor=#000000;align=center;strokeColor=#000000;" parent="cH-N6wzS0bkdWcANCXyc-1" vertex="1">
                    &#xa;
                    <mxGeometry x="-90" y="400" width="100" height="30" as="geometry"/>
                    &#xa;
                </mxCell>
                &#xa;
                <mxCell id="Ta5CLN8-l0O8IYf5EfC2-24" value="Ajouter" style="text;html=1;align=center;verticalAlign=middle;resizable=0;points=[];autosize=1;fontColor=#000000;" parent="cH-N6wzS0bkdWcANCXyc-1" vertex="1">
                    &#xa;
                    <mxGeometry x="-65" y="405" width="50" height="20" as="geometry"/>
                    &#xa;
                </mxCell>
                &#xa;
                <mxCell id="Ta5CLN8-l0O8IYf5EfC2-25" value="" style="endArrow=none;html=1;labelBackgroundColor=none;strokeColor=#000000;fontColor=#000000;entryX=0.5;entryY=1;entryDx=0;entryDy=0;" parent="cH-N6wzS0bkdWcANCXyc-1" target="Ta5CLN8-l0O8IYf5EfC2-23" edge="1">
                    &#xa;
                    <mxGeometry width="50" height="50" relative="1" as="geometry">
                        &#xa;
                        <mxPoint x="-40" y="450" as="sourcePoint"/>
                        &#xa;
                        <mxPoint x="80" y="240" as="targetPoint"/>
                        &#xa;
                    </mxGeometry>
                    &#xa;
                </mxCell>
                &#xa;
                <mxCell id="Ta5CLN8-l0O8IYf5EfC2-26" value="" style="rounded=0;whiteSpace=wrap;html=1;labelBackgroundColor=none;strokeWidth=1;fillColor=none;fontColor=#000000;align=center;strokeColor=#000000;" parent="cH-N6wzS0bkdWcANCXyc-1" vertex="1">
                    &#xa;
                    <mxGeometry x="-90" y="450" width="100" height="40" as="geometry"/>
                    &#xa;
                </mxCell>
                &#xa;
                <mxCell id="Ta5CLN8-l0O8IYf5EfC2-27" value="Remplir&lt;br&gt;formulaire" style="text;html=1;align=center;verticalAlign=middle;resizable=0;points=[];autosize=1;fontColor=#000000;" parent="cH-N6wzS0bkdWcANCXyc-1" vertex="1">
                    &#xa;
                    <mxGeometry x="-75" y="454" width="70" height="30" as="geometry"/>
                    &#xa;
                </mxCell>
                &#xa;
                <mxCell id="Ta5CLN8-l0O8IYf5EfC2-28" value="" style="endArrow=none;html=1;labelBackgroundColor=none;strokeColor=#000000;fontColor=#000000;" parent="cH-N6wzS0bkdWcANCXyc-1" edge="1">
                    &#xa;
                    <mxGeometry width="50" height="50" relative="1" as="geometry">
                        &#xa;
                        <mxPoint x="-40" y="490" as="sourcePoint"/>
                        &#xa;
                        <mxPoint x="-40" y="520" as="targetPoint"/>
                        &#xa;
                    </mxGeometry>
                    &#xa;
                </mxCell>
                &#xa;
                <mxCell id="Ta5CLN8-l0O8IYf5EfC2-29" value="" style="rounded=0;whiteSpace=wrap;html=1;labelBackgroundColor=none;strokeWidth=1;fillColor=none;fontColor=#000000;align=center;strokeColor=#000000;" parent="cH-N6wzS0bkdWcANCXyc-1" vertex="1">
                    &#xa;
                    <mxGeometry x="-90" y="520" width="100" height="40" as="geometry"/>
                    &#xa;
                </mxCell>
                &#xa;
                <mxCell id="Ta5CLN8-l0O8IYf5EfC2-30" value="Validation&amp;nbsp;&lt;br&gt;formulaire" style="text;html=1;align=center;verticalAlign=middle;resizable=0;points=[];autosize=1;fontColor=#000000;" parent="cH-N6wzS0bkdWcANCXyc-1" vertex="1">
                    &#xa;
                    <mxGeometry x="-75" y="524" width="70" height="30" as="geometry"/>
                    &#xa;
                </mxCell>
                &#xa;
                <mxCell id="Ta5CLN8-l0O8IYf5EfC2-31" value="" style="endArrow=none;html=1;labelBackgroundColor=none;strokeColor=#000000;fontColor=#000000;" parent="cH-N6wzS0bkdWcANCXyc-1" edge="1">
                    &#xa;
                    <mxGeometry width="50" height="50" relative="1" as="geometry">
                        &#xa;
                        <mxPoint x="-40" y="560" as="sourcePoint"/>
                        &#xa;
                        <mxPoint x="-40" y="590" as="targetPoint"/>
                        &#xa;
                    </mxGeometry>
                    &#xa;
                </mxCell>
                &#xa;
                <mxCell id="Ta5CLN8-l0O8IYf5EfC2-32" value="" style="rhombus;whiteSpace=wrap;html=1;labelBackgroundColor=none;strokeColor=#000000;strokeWidth=1;fillColor=none;fontSize=8;fontColor=#000000;align=center;" parent="cH-N6wzS0bkdWcANCXyc-1" vertex="1">
                    &#xa;
                    <mxGeometry x="-80" y="590" width="80" height="80" as="geometry"/>
                    &#xa;
                </mxCell>
                &#xa;
                <mxCell id="Ta5CLN8-l0O8IYf5EfC2-33" value="&lt;font style=&quot;font-size: 13px&quot;&gt;DÃ©cision&lt;/font&gt;" style="text;html=1;align=center;verticalAlign=middle;resizable=0;points=[];autosize=1;fontSize=8;fontColor=#000000;" parent="cH-N6wzS0bkdWcANCXyc-1" vertex="1">
                    &#xa;
                    <mxGeometry x="-75" y="620" width="70" height="20" as="geometry"/>
                    &#xa;
                </mxCell>
                &#xa;
                <mxCell id="Ta5CLN8-l0O8IYf5EfC2-34" value="formulaire incorrect" style="text;html=1;align=center;verticalAlign=middle;resizable=0;points=[];autosize=1;fontSize=8;fontColor=#000000;" parent="cH-N6wzS0bkdWcANCXyc-1" vertex="1">
                    &#xa;
                    <mxGeometry x="-155" y="610" width="80" height="20" as="geometry"/>
                    &#xa;
                </mxCell>
                &#xa;
                <mxCell id="Ta5CLN8-l0O8IYf5EfC2-35" value="" style="endArrow=none;html=1;labelBackgroundColor=none;strokeColor=#000000;fontColor=#000000;exitX=0.5;exitY=1;exitDx=0;exitDy=0;" parent="cH-N6wzS0bkdWcANCXyc-1" source="Ta5CLN8-l0O8IYf5EfC2-106" edge="1">
                    &#xa;
                    <mxGeometry width="50" height="50" relative="1" as="geometry">
                        &#xa;
                        <mxPoint x="880" y="690" as="sourcePoint"/>
                        &#xa;
                        <mxPoint x="-40" y="670" as="targetPoint"/>
                        &#xa;
                        <Array as="points">
                            &#xa;
                            <mxPoint x="880" y="880"/>
                            &#xa;
                            <mxPoint x="-40" y="880"/>
                            &#xa;
                        </Array>
                        &#xa;
                    </mxGeometry>
                    &#xa;
                </mxCell>
                &#xa;
                <mxCell id="Ta5CLN8-l0O8IYf5EfC2-37" value="" style="endArrow=none;html=1;labelBackgroundColor=none;strokeColor=#000000;fontColor=#000000;exitX=0;exitY=0.5;exitDx=0;exitDy=0;entryX=0;entryY=0.5;entryDx=0;entryDy=0;" parent="cH-N6wzS0bkdWcANCXyc-1" source="Ta5CLN8-l0O8IYf5EfC2-47" target="Ta5CLN8-l0O8IYf5EfC2-41" edge="1">
                    &#xa;
                    <mxGeometry width="50" height="50" relative="1" as="geometry">
                        &#xa;
                        <mxPoint x="120" y="630" as="sourcePoint"/>
                        &#xa;
                        <mxPoint x="-10" y="460" as="targetPoint"/>
                        &#xa;
                        <Array as="points">
                            &#xa;
                            <mxPoint x="80" y="630"/>
                            &#xa;
                            <mxPoint x="80" y="470"/>
                            &#xa;
                        </Array>
                        &#xa;
                    </mxGeometry>
                    &#xa;
                </mxCell>
                &#xa;
                <mxCell id="Ta5CLN8-l0O8IYf5EfC2-38" value="" style="rounded=0;whiteSpace=wrap;html=1;labelBackgroundColor=none;strokeWidth=1;fillColor=none;fontColor=#000000;align=center;strokeColor=#000000;" parent="cH-N6wzS0bkdWcANCXyc-1" vertex="1">
                    &#xa;
                    <mxGeometry x="150" y="400" width="100" height="30" as="geometry"/>
                    &#xa;
                </mxCell>
                &#xa;
                <mxCell id="Ta5CLN8-l0O8IYf5EfC2-39" value="Modifier" style="text;html=1;align=center;verticalAlign=middle;resizable=0;points=[];autosize=1;fontColor=#000000;" parent="cH-N6wzS0bkdWcANCXyc-1" vertex="1">
                    &#xa;
                    <mxGeometry x="170" y="405" width="60" height="20" as="geometry"/>
                    &#xa;
                </mxCell>
                &#xa;
                <mxCell id="Ta5CLN8-l0O8IYf5EfC2-40" value="" style="endArrow=none;html=1;labelBackgroundColor=none;strokeColor=#000000;fontColor=#000000;entryX=0.5;entryY=1;entryDx=0;entryDy=0;" parent="cH-N6wzS0bkdWcANCXyc-1" target="Ta5CLN8-l0O8IYf5EfC2-38" edge="1">
                    &#xa;
                    <mxGeometry width="50" height="50" relative="1" as="geometry">
                        &#xa;
                        <mxPoint x="200" y="450" as="sourcePoint"/>
                        &#xa;
                        <mxPoint x="320" y="240" as="targetPoint"/>
                        &#xa;
                    </mxGeometry>
                    &#xa;
                </mxCell>
                &#xa;
                <mxCell id="Ta5CLN8-l0O8IYf5EfC2-41" value="" style="rounded=0;whiteSpace=wrap;html=1;labelBackgroundColor=none;strokeWidth=1;fillColor=none;fontColor=#000000;align=center;strokeColor=#000000;" parent="cH-N6wzS0bkdWcANCXyc-1" vertex="1">
                    &#xa;
                    <mxGeometry x="150" y="450" width="100" height="40" as="geometry"/>
                    &#xa;
                </mxCell>
                &#xa;
                <mxCell id="Ta5CLN8-l0O8IYf5EfC2-42" value="Remplir&lt;br&gt;formulaire" style="text;html=1;align=center;verticalAlign=middle;resizable=0;points=[];autosize=1;fontColor=#000000;" parent="cH-N6wzS0bkdWcANCXyc-1" vertex="1">
                    &#xa;
                    <mxGeometry x="165" y="454" width="70" height="30" as="geometry"/>
                    &#xa;
                </mxCell>
                &#xa;
                <mxCell id="Ta5CLN8-l0O8IYf5EfC2-43" value="" style="endArrow=none;html=1;labelBackgroundColor=none;strokeColor=#000000;fontColor=#000000;" parent="cH-N6wzS0bkdWcANCXyc-1" edge="1">
                    &#xa;
                    <mxGeometry width="50" height="50" relative="1" as="geometry">
                        &#xa;
                        <mxPoint x="200" y="490" as="sourcePoint"/>
                        &#xa;
                        <mxPoint x="200" y="520" as="targetPoint"/>
                        &#xa;
                    </mxGeometry>
                    &#xa;
                </mxCell>
                &#xa;
                <mxCell id="Ta5CLN8-l0O8IYf5EfC2-44" value="" style="rounded=0;whiteSpace=wrap;html=1;labelBackgroundColor=none;strokeWidth=1;fillColor=none;fontColor=#000000;align=center;strokeColor=#000000;" parent="cH-N6wzS0bkdWcANCXyc-1" vertex="1">
                    &#xa;
                    <mxGeometry x="150" y="520" width="100" height="40" as="geometry"/>
                    &#xa;
                </mxCell>
                &#xa;
                <mxCell id="Ta5CLN8-l0O8IYf5EfC2-45" value="Validation&amp;nbsp;&lt;br&gt;formulaire" style="text;html=1;align=center;verticalAlign=middle;resizable=0;points=[];autosize=1;fontColor=#000000;" parent="cH-N6wzS0bkdWcANCXyc-1" vertex="1">
                    &#xa;
                    <mxGeometry x="165" y="524" width="70" height="30" as="geometry"/>
                    &#xa;
                </mxCell>
                &#xa;
                <mxCell id="Ta5CLN8-l0O8IYf5EfC2-46" value="" style="endArrow=none;html=1;labelBackgroundColor=none;strokeColor=#000000;fontColor=#000000;" parent="cH-N6wzS0bkdWcANCXyc-1" edge="1">
                    &#xa;
                    <mxGeometry width="50" height="50" relative="1" as="geometry">
                        &#xa;
                        <mxPoint x="200" y="560" as="sourcePoint"/>
                        &#xa;
                        <mxPoint x="200" y="590" as="targetPoint"/>
                        &#xa;
                    </mxGeometry>
                    &#xa;
                </mxCell>
                &#xa;
                <mxCell id="Ta5CLN8-l0O8IYf5EfC2-47" value="" style="rhombus;whiteSpace=wrap;html=1;labelBackgroundColor=none;strokeColor=#000000;strokeWidth=1;fillColor=none;fontSize=8;fontColor=#000000;align=center;" parent="cH-N6wzS0bkdWcANCXyc-1" vertex="1">
                    &#xa;
                    <mxGeometry x="160" y="590" width="80" height="80" as="geometry"/>
                    &#xa;
                </mxCell>
                &#xa;
                <mxCell id="Ta5CLN8-l0O8IYf5EfC2-48" value="&lt;font style=&quot;font-size: 13px&quot;&gt;DÃ©cision&lt;/font&gt;" style="text;html=1;align=center;verticalAlign=middle;resizable=0;points=[];autosize=1;fontSize=8;fontColor=#000000;" parent="cH-N6wzS0bkdWcANCXyc-1" vertex="1">
                    &#xa;
                    <mxGeometry x="165" y="620" width="70" height="20" as="geometry"/>
                    &#xa;
                </mxCell>
                &#xa;
                <mxCell id="Ta5CLN8-l0O8IYf5EfC2-49" value="formulaire incorrect" style="text;html=1;align=center;verticalAlign=middle;resizable=0;points=[];autosize=1;fontSize=8;fontColor=#000000;" parent="cH-N6wzS0bkdWcANCXyc-1" vertex="1">
                    &#xa;
                    <mxGeometry x="85" y="610" width="80" height="20" as="geometry"/>
                    &#xa;
                </mxCell>
                &#xa;
                <mxCell id="Ta5CLN8-l0O8IYf5EfC2-50" value="" style="endArrow=none;html=1;labelBackgroundColor=none;strokeColor=#000000;fontColor=#000000;" parent="cH-N6wzS0bkdWcANCXyc-1" edge="1">
                    &#xa;
                    <mxGeometry width="50" height="50" relative="1" as="geometry">
                        &#xa;
                        <mxPoint x="200" y="360" as="sourcePoint"/>
                        &#xa;
                        <mxPoint x="200" y="400" as="targetPoint"/>
                        &#xa;
                        <Array as="points">
                            &#xa;
                            <mxPoint x="200" y="400"/>
                            &#xa;
                        </Array>
                        &#xa;
                    </mxGeometry>
                    &#xa;
                </mxCell>
                &#xa;
                <mxCell id="Ta5CLN8-l0O8IYf5EfC2-51" value="" style="endArrow=none;html=1;labelBackgroundColor=none;strokeColor=#000000;fontColor=#000000;exitX=0.5;exitY=0;exitDx=0;exitDy=0;" parent="cH-N6wzS0bkdWcANCXyc-1" source="Ta5CLN8-l0O8IYf5EfC2-106" edge="1">
                    &#xa;
                    <mxGeometry width="50" height="50" relative="1" as="geometry">
                        &#xa;
                        <mxPoint x="880" y="360" as="sourcePoint"/>
                        &#xa;
                        <mxPoint x="360" y="360" as="targetPoint"/>
                        &#xa;
                        <Array as="points">
                            &#xa;
                            <mxPoint x="880" y="360"/>
                            &#xa;
                        </Array>
                        &#xa;
                    </mxGeometry>
                    &#xa;
                </mxCell>
                &#xa;
                <mxCell id="Ta5CLN8-l0O8IYf5EfC2-52" value="" style="endArrow=none;html=1;labelBackgroundColor=none;strokeColor=#000000;fontColor=#000000;" parent="cH-N6wzS0bkdWcANCXyc-1" edge="1">
                    &#xa;
                    <mxGeometry width="50" height="50" relative="1" as="geometry">
                        &#xa;
                        <mxPoint x="520" y="360" as="sourcePoint"/>
                        &#xa;
                        <mxPoint x="520" y="400" as="targetPoint"/>
                        &#xa;
                        <Array as="points"/>
                        &#xa;
                    </mxGeometry>
                    &#xa;
                </mxCell>
                &#xa;
                <mxCell id="Ta5CLN8-l0O8IYf5EfC2-54" value="" style="rounded=0;whiteSpace=wrap;html=1;labelBackgroundColor=none;strokeWidth=1;fillColor=none;fontColor=#000000;align=center;strokeColor=#000000;" parent="cH-N6wzS0bkdWcANCXyc-1" vertex="1">
                    &#xa;
                    <mxGeometry x="470" y="400" width="100" height="30" as="geometry"/>
                    &#xa;
                </mxCell>
                &#xa;
                <mxCell id="Ta5CLN8-l0O8IYf5EfC2-55" value="Supprimer" style="text;html=1;align=center;verticalAlign=middle;resizable=0;points=[];autosize=1;fontColor=#000000;" parent="cH-N6wzS0bkdWcANCXyc-1" vertex="1">
                    &#xa;
                    <mxGeometry x="485" y="405" width="70" height="20" as="geometry"/>
                    &#xa;
                </mxCell>
                &#xa;
                <mxCell id="Ta5CLN8-l0O8IYf5EfC2-56" value="" style="endArrow=none;html=1;labelBackgroundColor=none;strokeColor=#000000;fontColor=#000000;exitX=0.5;exitY=1;exitDx=0;exitDy=0;" parent="cH-N6wzS0bkdWcANCXyc-1" source="Ta5CLN8-l0O8IYf5EfC2-54" edge="1">
                    &#xa;
                    <mxGeometry width="50" height="50" relative="1" as="geometry">
                        &#xa;
                        <mxPoint x="529.9999999999998" y="370" as="sourcePoint"/>
                        &#xa;
                        <mxPoint x="520" y="460" as="targetPoint"/>
                        &#xa;
                        <Array as="points"/>
                        &#xa;
                    </mxGeometry>
                    &#xa;
                </mxCell>
                &#xa;
                <mxCell id="Ta5CLN8-l0O8IYf5EfC2-82" value="" style="endArrow=none;html=1;labelBackgroundColor=none;strokeColor=#000000;fontColor=#000000;exitX=0;exitY=0.5;exitDx=0;exitDy=0;entryX=0;entryY=0.5;entryDx=0;entryDy=0;" parent="cH-N6wzS0bkdWcANCXyc-1" source="Ta5CLN8-l0O8IYf5EfC2-89" target="Ta5CLN8-l0O8IYf5EfC2-83" edge="1">
                    &#xa;
                    <mxGeometry width="50" height="50" relative="1" as="geometry">
                        &#xa;
                        <mxPoint x="440" y="640" as="sourcePoint"/>
                        &#xa;
                        <mxPoint x="310" y="470" as="targetPoint"/>
                        &#xa;
                        <Array as="points">
                            &#xa;
                            <mxPoint x="400" y="640"/>
                            &#xa;
                            <mxPoint x="400" y="480"/>
                            &#xa;
                        </Array>
                        &#xa;
                    </mxGeometry>
                    &#xa;
                </mxCell>
                &#xa;
                <mxCell id="Ta5CLN8-l0O8IYf5EfC2-83" value="" style="rounded=0;whiteSpace=wrap;html=1;labelBackgroundColor=none;strokeWidth=1;fillColor=none;fontColor=#000000;align=center;strokeColor=#000000;" parent="cH-N6wzS0bkdWcANCXyc-1" vertex="1">
                    &#xa;
                    <mxGeometry x="460" y="460" width="120" height="40" as="geometry"/>
                    &#xa;
                </mxCell>
                &#xa;
                <mxCell id="Ta5CLN8-l0O8IYf5EfC2-84" value="selectionner l'article&lt;br&gt;pour suprrimer" style="text;html=1;align=center;verticalAlign=middle;resizable=0;points=[];autosize=1;fontColor=#000000;" parent="cH-N6wzS0bkdWcANCXyc-1" vertex="1">
                    &#xa;
                    <mxGeometry x="460" y="464" width="120" height="30" as="geometry"/>
                    &#xa;
                </mxCell>
                &#xa;
                <mxCell id="Ta5CLN8-l0O8IYf5EfC2-85" value="" style="endArrow=none;html=1;labelBackgroundColor=none;strokeColor=#000000;fontColor=#000000;" parent="cH-N6wzS0bkdWcANCXyc-1" edge="1">
                    &#xa;
                    <mxGeometry width="50" height="50" relative="1" as="geometry">
                        &#xa;
                        <mxPoint x="519.9999999999998" y="500" as="sourcePoint"/>
                        &#xa;
                        <mxPoint x="519.9999999999998" y="530" as="targetPoint"/>
                        &#xa;
                    </mxGeometry>
                    &#xa;
                </mxCell>
                &#xa;
                <mxCell id="Ta5CLN8-l0O8IYf5EfC2-86" value="" style="rounded=0;whiteSpace=wrap;html=1;labelBackgroundColor=none;strokeWidth=1;fillColor=none;fontColor=#000000;align=center;strokeColor=#000000;" parent="cH-N6wzS0bkdWcANCXyc-1" vertex="1">
                    &#xa;
                    <mxGeometry x="470" y="530" width="100" height="40" as="geometry"/>
                    &#xa;
                </mxCell>
                &#xa;
                <mxCell id="Ta5CLN8-l0O8IYf5EfC2-87" value="Message&lt;br&gt;de vÃ©rification" style="text;html=1;align=center;verticalAlign=middle;resizable=0;points=[];autosize=1;fontColor=#000000;" parent="cH-N6wzS0bkdWcANCXyc-1" vertex="1">
                    &#xa;
                    <mxGeometry x="475" y="534" width="90" height="30" as="geometry"/>
                    &#xa;
                </mxCell>
                &#xa;
                <mxCell id="Ta5CLN8-l0O8IYf5EfC2-88" value="" style="endArrow=none;html=1;labelBackgroundColor=none;strokeColor=#000000;fontColor=#000000;" parent="cH-N6wzS0bkdWcANCXyc-1" edge="1">
                    &#xa;
                    <mxGeometry width="50" height="50" relative="1" as="geometry">
                        &#xa;
                        <mxPoint x="519.9999999999998" y="570" as="sourcePoint"/>
                        &#xa;
                        <mxPoint x="519.9999999999998" y="600" as="targetPoint"/>
                        &#xa;
                    </mxGeometry>
                    &#xa;
                </mxCell>
                &#xa;
                <mxCell id="Ta5CLN8-l0O8IYf5EfC2-89" value="" style="rhombus;whiteSpace=wrap;html=1;labelBackgroundColor=none;strokeColor=#000000;strokeWidth=1;fillColor=none;fontSize=8;fontColor=#000000;align=center;" parent="cH-N6wzS0bkdWcANCXyc-1" vertex="1">
                    &#xa;
                    <mxGeometry x="480" y="600" width="80" height="80" as="geometry"/>
                    &#xa;
                </mxCell>
                &#xa;
                <mxCell id="Ta5CLN8-l0O8IYf5EfC2-90" value="&lt;font style=&quot;font-size: 13px&quot;&gt;DÃ©cision&lt;/font&gt;" style="text;html=1;align=center;verticalAlign=middle;resizable=0;points=[];autosize=1;fontSize=8;fontColor=#000000;" parent="cH-N6wzS0bkdWcANCXyc-1" vertex="1">
                    &#xa;
                    <mxGeometry x="485" y="630" width="70" height="20" as="geometry"/>
                    &#xa;
                </mxCell>
                &#xa;
                <mxCell id="Ta5CLN8-l0O8IYf5EfC2-91" value="Valider avec Non" style="text;html=1;align=center;verticalAlign=middle;resizable=0;points=[];autosize=1;fontSize=8;fontColor=#000000;" parent="cH-N6wzS0bkdWcANCXyc-1" vertex="1">
                    &#xa;
                    <mxGeometry x="405" y="620" width="80" height="20" as="geometry"/>
                    &#xa;
                </mxCell>
                &#xa;
                <mxCell id="Ta5CLN8-l0O8IYf5EfC2-106" value="" style="rounded=0;whiteSpace=wrap;html=1;labelBackgroundColor=none;strokeWidth=1;fillColor=none;fontColor=#000000;align=center;strokeColor=#000000;" parent="cH-N6wzS0bkdWcANCXyc-1" vertex="1">
                    &#xa;
                    <mxGeometry x="820" y="640" width="120" height="50" as="geometry"/>
                    &#xa;
                </mxCell>
                &#xa;
                <mxCell id="Ta5CLN8-l0O8IYf5EfC2-107" value="Affichage des &lt;br&gt;article" style="text;html=1;align=center;verticalAlign=middle;resizable=0;points=[];autosize=1;fontColor=#000000;" parent="cH-N6wzS0bkdWcANCXyc-1" vertex="1">
                    &#xa;
                    <mxGeometry x="835" y="650" width="90" height="30" as="geometry"/>
                    &#xa;
                </mxCell>
                &#xa;
                <mxCell id="Ta5CLN8-l0O8IYf5EfC2-108" value="ajout avec sucÃ©es" style="text;html=1;align=center;verticalAlign=middle;resizable=0;points=[];autosize=1;fontSize=8;fontColor=#000000;" parent="cH-N6wzS0bkdWcANCXyc-1" vertex="1">
                    &#xa;
                    <mxGeometry x="-30" y="760" width="80" height="20" as="geometry"/>
                    &#xa;
                </mxCell>
                &#xa;
                <mxCell id="Ta5CLN8-l0O8IYf5EfC2-109" value="" style="endArrow=none;html=1;labelBackgroundColor=none;strokeColor=#000000;fontColor=#000000;entryX=0.5;entryY=1;entryDx=0;entryDy=0;" parent="cH-N6wzS0bkdWcANCXyc-1" target="Ta5CLN8-l0O8IYf5EfC2-47" edge="1">
                    &#xa;
                    <mxGeometry width="50" height="50" relative="1" as="geometry">
                        &#xa;
                        <mxPoint x="200" y="881.3333129882812" as="sourcePoint"/>
                        &#xa;
                        <mxPoint x="210" y="600" as="targetPoint"/>
                        &#xa;
                    </mxGeometry>
                    &#xa;
                </mxCell>
                &#xa;
                <mxCell id="Ta5CLN8-l0O8IYf5EfC2-110" value="update avec succÃ©es" style="text;html=1;align=center;verticalAlign=middle;resizable=0;points=[];autosize=1;fontSize=8;fontColor=#000000;" parent="cH-N6wzS0bkdWcANCXyc-1" vertex="1">
                    &#xa;
                    <mxGeometry x="202" y="760" width="90" height="20" as="geometry"/>
                    &#xa;
                </mxCell>
                &#xa;
                <mxCell id="Ta5CLN8-l0O8IYf5EfC2-111" value="" style="endArrow=none;html=1;labelBackgroundColor=none;strokeColor=#000000;fontSize=8;fontColor=#000000;entryX=0.5;entryY=1;entryDx=0;entryDy=0;" parent="cH-N6wzS0bkdWcANCXyc-1" target="Ta5CLN8-l0O8IYf5EfC2-89" edge="1">
                    &#xa;
                    <mxGeometry width="50" height="50" relative="1" as="geometry">
                        &#xa;
                        <mxPoint x="520" y="880" as="sourcePoint"/>
                        &#xa;
                        <mxPoint x="550" y="680" as="targetPoint"/>
                        &#xa;
                    </mxGeometry>
                    &#xa;
                </mxCell>
                &#xa;
                <mxCell id="Ta5CLN8-l0O8IYf5EfC2-112" value="suppression&amp;nbsp;&lt;br&gt;avec&lt;br&gt;sucÃ©es" style="text;html=1;align=center;verticalAlign=middle;resizable=0;points=[];autosize=1;fontSize=8;fontColor=#000000;" parent="cH-N6wzS0bkdWcANCXyc-1" vertex="1">
                    &#xa;
                    <mxGeometry x="520" y="740" width="60" height="40" as="geometry"/>
                    &#xa;
                </mxCell>
                &#xa;
            </root>
            &#xa;
        </mxGraphModel>
        &#xa;
    </diagram>
</mxfile>